<svg width="40" height="41" viewBox="0 0 40 41" fill="none" xmlns="http://www.w3.org/2000/svg">
<path d="M34.4719 33.7666H37.5902C37.6934 33.76 37.7969 33.7746 37.8942 33.8095C37.9915 33.8445 38.0806 33.899 38.156 33.9698C38.2314 34.0407 38.2914 34.1262 38.3324 34.2211C38.3733 34.3161 38.3944 34.4184 38.3942 34.5219C38.4077 34.7377 38.3363 34.9503 38.1951 35.1142C38.054 35.278 37.8544 35.3802 37.6389 35.3989L32.7666 35.5207C32.548 35.545 32.3274 35.545 32.1088 35.5207C31.5485 35.5207 31.3049 35.1796 31.4023 34.6193C31.5972 33.4499 31.8408 32.1831 32.0601 31.0868L32.4255 29.3815C32.4267 29.2577 32.4549 29.1357 32.508 29.0238C32.5612 28.912 32.6381 28.8131 32.7333 28.734C32.8285 28.6549 32.9399 28.5974 33.0596 28.5657C33.1792 28.534 33.3044 28.5287 33.4263 28.5502C33.5482 28.5717 33.664 28.6195 33.7656 28.6903C33.8672 28.7611 33.9521 28.8532 34.0146 28.9601C34.077 29.067 34.1153 29.1863 34.127 29.3095C34.1387 29.4328 34.1234 29.5571 34.0821 29.6739C33.9359 30.5022 33.7654 31.3305 33.5949 32.2318C34.5584 31.1574 35.3774 29.9617 36.0311 28.675C37.293 26.2552 38.0013 23.5851 38.1048 20.8579C38.2084 18.1307 37.7045 15.4146 36.6298 12.906C35.555 10.3974 33.9361 8.15907 31.8903 6.35278C29.8444 4.54649 27.4227 3.21745 24.8003 2.46177C20.7598 1.30518 16.4387 1.63359 12.6194 3.38751L11.7911 3.70422C11.6941 3.74677 11.5893 3.76845 11.4834 3.76785C11.3775 3.76725 11.2729 3.74438 11.1764 3.70073C11.0799 3.65708 10.9937 3.59362 10.9233 3.51448C10.8529 3.43533 10.8 3.34228 10.7679 3.24134C10.7108 3.13693 10.6762 3.02171 10.6663 2.9031C10.6564 2.7845 10.6714 2.66514 10.7104 2.55269C10.7494 2.44025 10.8115 2.33722 10.8928 2.25023C10.974 2.16325 11.0725 2.09423 11.1821 2.04762C12.1833 1.53094 13.2368 1.1226 14.3247 0.829528C16.9608 0.0431564 19.7315 -0.187536 22.4613 0.152046C25.1912 0.491628 27.8209 1.39409 30.184 2.80234C32.5471 4.2106 34.5922 6.09398 36.19 8.33334C37.7877 10.5727 38.9032 13.1193 39.4661 15.812C40.2239 18.9388 40.1743 22.207 39.322 25.3094C38.4697 28.4118 36.8426 31.2466 34.5937 33.5474L34.4719 33.7666Z" fill="#03FFA2"/>
<path d="M0 20.66V19.515C0.114273 15.5772 1.39452 11.7619 3.67863 8.55221C4.21535 7.79196 4.80129 7.06768 5.43267 6.38401C5.43267 6.38401 5.21342 6.38401 5.09161 6.38401L2.43618 6.28656C2.31967 6.30391 2.20081 6.2962 2.08751 6.26396C1.97422 6.23172 1.86911 6.17569 1.77919 6.0996C1.68927 6.02352 1.61662 5.92913 1.56607 5.82274C1.51552 5.71635 1.48825 5.6004 1.48607 5.48263C1.48607 4.97103 1.85149 4.65433 2.43618 4.62996H7.47906C8.23428 4.62996 8.5997 5.01975 8.45353 5.77497C8.13683 7.33412 7.79577 8.99072 7.4547 10.6473C7.44278 10.7651 7.40713 10.8793 7.34991 10.9829C7.29269 11.0866 7.21507 11.1775 7.12174 11.2504C7.02841 11.3232 6.9213 11.3764 6.80686 11.4068C6.69242 11.4371 6.57303 11.4439 6.45587 11.4269C6.33974 11.4044 6.22956 11.3581 6.13232 11.2907C6.03508 11.2234 5.95292 11.1365 5.89106 11.0357C5.8292 10.9349 5.78899 10.8223 5.77298 10.7051C5.75698 10.5879 5.76553 10.4687 5.7981 10.355C5.91991 9.55104 6.09044 8.7471 6.26097 7.9188C5.88195 8.26674 5.54655 8.6594 5.26214 9.08817C2.59266 12.6261 1.31799 17.0224 1.68096 21.4396C1.90424 24.3884 2.83804 27.2392 4.40257 29.7487C5.9671 32.2581 8.11586 34.3516 10.6653 35.8501C13.2147 37.3486 16.089 38.2077 19.0426 38.354C21.9961 38.5003 24.9412 37.9294 27.6262 36.6901L28.016 36.5682C28.117 36.511 28.2289 36.4756 28.3445 36.4643C28.4601 36.4531 28.5767 36.4663 28.6869 36.503C28.797 36.5398 28.8982 36.5993 28.9838 36.6777C29.0695 36.756 29.1377 36.8516 29.1841 36.958C29.2304 37.0645 29.2539 37.1795 29.2529 37.2956C29.252 37.4117 29.2266 37.5263 29.1785 37.632C29.1304 37.7377 29.0606 37.832 28.9736 37.909C28.8867 37.9859 28.7845 38.0438 28.6738 38.0787C27.3613 38.7204 25.98 39.2108 24.5567 39.5404C23.4301 39.8133 22.2797 39.9765 21.1217 40.0276H18.9291C14.6517 39.7859 10.5707 38.1517 7.30853 35.3745C3.44106 32.2382 0.900407 27.7573 0.194894 22.8282C0 22.1217 0 21.3909 0 20.66Z" fill="#03FFA2"/>
<path d="M30.4035 24.2168C30.4035 23.9245 30.6958 23.6565 30.7446 23.3154C30.8055 22.3257 30.8055 21.3331 30.7446 20.3433C30.7446 19.9292 30.4035 19.5637 30.4035 19.2227C30.4035 18.8816 30.7446 18.4918 30.7446 18.0533C30.8055 17.0635 30.8055 16.0709 30.7446 15.0812C30.7446 14.7401 30.4035 14.4721 30.4035 14.2041C30.4035 13.9362 30.7202 13.6195 30.7446 13.254C30.8177 12.2809 30.8177 11.3037 30.7446 10.3306C30.7352 10.0629 30.6727 9.79968 30.5608 9.5563C30.4488 9.31292 30.2896 9.09421 30.0924 8.91288C29.8952 8.73155 29.664 8.59121 29.4121 8.50002C29.1602 8.40883 28.8927 8.3686 28.6251 8.38168C25.6042 8.38168 22.559 8.38168 19.5138 8.38168C19.2347 8.37485 18.9572 8.42519 18.6983 8.52961C18.4394 8.63402 18.2046 8.7903 18.0084 8.98883C17.8121 9.18736 17.6586 9.42394 17.5572 9.68402C17.4557 9.9441 17.4086 10.2222 17.4187 10.5012V12.0603C16.1455 11.6892 14.8057 11.606 13.4964 11.8167C12.2532 12.0211 11.0655 12.4797 10.0075 13.164C8.94961 13.8483 8.04423 14.7435 7.34799 15.7936C6.65175 16.8436 6.17962 18.0261 5.96113 19.2669C5.74265 20.5078 5.78249 21.7803 6.07818 23.0051C6.37386 24.2298 6.91903 25.3804 7.6796 26.3849C8.44017 27.3894 9.39978 28.2261 10.4984 28.8429C11.5971 29.4596 12.8112 29.8431 14.0648 29.9693C15.3184 30.0955 16.5845 29.9618 17.7841 29.5764C17.9059 29.5764 18.0277 29.4059 18.1739 29.5764C18.4366 29.7817 18.7386 29.9308 19.0613 30.0146C19.3839 30.0984 19.7204 30.1151 20.0497 30.0637H28.6494C29.1841 30.077 29.7027 29.8805 30.0943 29.5162C30.4858 29.152 30.7193 28.6489 30.7446 28.1147C30.8176 27.1009 30.8176 26.0832 30.7446 25.0695C30.6958 24.7284 30.4035 24.3874 30.4035 24.2168ZM14.8607 28.3827C13.3717 28.3677 11.9208 27.91 10.6927 27.0678C9.46461 26.2256 8.51488 25.0371 7.9644 23.6535C7.41391 22.2699 7.28756 20.7537 7.60143 19.2981C7.9153 17.8424 8.65519 16.5131 9.72693 15.4793C10.7987 14.4454 12.1538 13.7539 13.6198 13.4926C15.0858 13.2313 16.5964 13.4122 17.9593 14.0121C19.3222 14.6121 20.4758 15.6039 21.2732 16.8615C22.0706 18.1191 22.4758 19.5856 22.4372 21.0742C22.3799 23.0409 21.5549 24.907 20.1389 26.273C18.7228 27.639 16.8282 28.3963 14.8607 28.3827ZM24.1182 20.2459C24.1182 20.0753 24.1182 20.0266 24.313 20.0266H28.6494C28.7134 20.0226 28.7774 20.0327 28.837 20.0562C28.8967 20.0796 28.9504 20.1158 28.9945 20.1622C29.0387 20.2087 29.0721 20.2642 29.0924 20.325C29.1128 20.3857 29.1196 20.4502 29.1123 20.5138V22.95C29.1123 23.3154 28.8687 23.4372 28.552 23.4372H24.0451C23.8502 23.4372 23.7527 23.4373 23.8258 23.1693C24.0982 22.2203 24.1973 21.23 24.1182 20.2459ZM28.9905 17.8097C28.9905 18.2726 28.8443 18.3944 28.3815 18.3944H24.0451C24.0451 18.3944 23.7527 18.3944 23.704 18.2482C23.3296 17.0692 22.7252 15.9762 21.9256 15.0324H28.5033C28.9905 15.0324 29.1123 15.0324 29.1123 15.6415L28.9905 17.8097ZM28.9905 27.8467C28.9905 28.2609 28.8443 28.4071 28.4545 28.4071H20.3664L21.2191 27.6762C21.9571 26.9694 22.5743 26.1464 23.0462 25.24C23.0738 25.1544 23.1301 25.081 23.2055 25.0322C23.281 24.9833 23.371 24.9621 23.4604 24.972H28.6251C29.0392 24.972 29.1854 25.0939 29.1854 25.508L28.9905 27.8467ZM28.9905 12.913C28.9905 13.254 28.7956 13.4002 28.4789 13.4002H20.7562C20.1895 13.3481 19.649 13.137 19.1971 12.7912C19.1971 12.7912 19.1971 12.5719 19.1971 12.4745V10.5986C19.1971 10.1601 19.3432 10.0383 19.7818 10.0383H28.6251C29.1123 10.0383 29.1854 10.0383 29.2098 10.5986L28.9905 12.913Z" fill="#03FFA2"/>
<path d="M15.689 20.0266H14.1786C13.9589 20.0266 13.7482 19.9393 13.5929 19.784C13.4375 19.6287 13.3503 19.418 13.3503 19.1983C13.3503 18.9786 13.4375 18.7679 13.5929 18.6126C13.7482 18.4573 13.9589 18.37 14.1786 18.37H17.2238C17.8815 18.37 18.2713 18.0533 18.2713 17.5417C18.2713 17.0301 17.8815 16.689 17.2238 16.689H16.566C15.8108 16.689 15.8108 16.689 15.7864 15.9582C15.793 15.841 15.776 15.7237 15.7364 15.6132C15.6968 15.5027 15.6354 15.4013 15.5559 15.315C15.4764 15.2287 15.3803 15.1592 15.2735 15.1106C15.1666 15.0621 15.0511 15.0355 14.9338 15.0324C14.8196 15.0355 14.7073 15.0615 14.6034 15.1088C14.4995 15.1561 14.4061 15.2238 14.3289 15.3079C14.2516 15.3919 14.192 15.4907 14.1537 15.5982C14.1153 15.7057 14.0989 15.8198 14.1055 15.9338C14.1055 16.1531 14.1055 16.4211 14.1055 16.5916C14.1055 16.7621 13.6913 16.5916 13.4721 16.7865C12.8776 16.9265 12.3574 17.2846 12.0145 17.7899C11.6716 18.2952 11.531 18.9109 11.6206 19.515C11.6638 20.1311 11.9394 20.7078 12.3917 21.1284C12.844 21.549 13.4391 21.7822 14.0567 21.7807H15.7377C15.8659 21.7671 15.9955 21.7837 16.1161 21.8291C16.2368 21.8744 16.3452 21.9473 16.4327 22.0419C16.5202 22.1365 16.5844 22.2503 16.6203 22.3741C16.6561 22.4979 16.6625 22.6284 16.6391 22.7551C16.5975 22.9685 16.476 23.158 16.2994 23.2848C16.1228 23.4116 15.9045 23.4661 15.689 23.4372H12.5707C12.4619 23.4372 12.3542 23.4587 12.2537 23.5003C12.1532 23.5419 12.0619 23.6029 11.985 23.6799C11.9081 23.7568 11.847 23.8481 11.8054 23.9486C11.7638 24.0491 11.7424 24.1568 11.7424 24.2655C11.7424 24.3743 11.7638 24.482 11.8054 24.5825C11.847 24.683 11.9081 24.7743 11.985 24.8512C12.0619 24.9282 12.1532 24.9892 12.2537 25.0308C12.3542 25.0724 12.4619 25.0939 12.5707 25.0939H13.8862C14.0567 25.0939 14.1055 25.0939 14.1055 25.3131C14.0811 25.5398 14.0811 25.7685 14.1055 25.9952C14.1086 26.0976 14.1319 26.1984 14.174 26.2918C14.2161 26.3852 14.2763 26.4693 14.3509 26.5395C14.4256 26.6096 14.5133 26.6643 14.6092 26.7005C14.705 26.7367 14.807 26.7537 14.9094 26.7505C15.1132 26.7519 15.3104 26.6781 15.4632 26.5433C15.616 26.4084 15.7137 26.222 15.7377 26.0196C15.7498 25.8249 15.7498 25.6296 15.7377 25.4349C15.7377 25.1913 15.7377 25.0938 16.0544 25.0695C16.7005 25.0146 17.2984 24.7052 17.7164 24.2095C18.1344 23.7138 18.3384 23.0724 18.2835 22.4262C18.2286 21.7801 17.9193 21.1823 17.4235 20.7642C16.9278 20.3462 16.2864 20.1422 15.6403 20.1971L15.689 20.0266Z" fill="#03FFA2"/>
</svg>
