<svg width="40" height="41" viewBox="0 0 40 41" fill="none" xmlns="http://www.w3.org/2000/svg">
<path d="M13.8663 15.5268C13.0121 15.3297 12.1579 15.1107 11.3475 14.804C10.5371 14.4974 9.79242 14.0593 8.98201 13.6651C7.44147 14.8945 6.22362 16.4808 5.43376 18.2866C5.41199 18.3348 5.40073 18.387 5.40073 18.4399C5.40073 18.4928 5.41199 18.545 5.43376 18.5932C5.91563 19.4693 6.44129 20.3235 6.92315 21.1996C7.03787 21.4451 7.20863 21.6602 7.42167 21.8276C7.63471 21.9949 7.88409 22.11 8.14971 22.1634C8.50446 22.2622 8.84912 22.3942 9.17914 22.5576C9.37357 22.6306 9.55167 22.7412 9.70322 22.8832C9.85477 23.0252 9.97678 23.1957 10.0623 23.385C10.1477 23.5743 10.195 23.7785 10.2013 23.9861C10.2076 24.1937 10.1729 24.4005 10.0991 24.5946C9.88003 25.2736 9.57339 25.9306 9.28865 26.6096C9.20441 26.8296 9.10183 27.042 8.98201 27.2448C8.76445 27.5929 8.64909 27.9952 8.64909 28.4057C8.64909 28.8162 8.76445 29.2184 8.98201 29.5665C9.56749 30.6191 9.78341 31.8375 9.59529 33.0271C9.56961 33.1347 9.58171 33.2478 9.62957 33.3475C9.67743 33.4473 9.75813 33.5275 9.85812 33.5747L12.0484 34.7137C12.4646 34.9327 12.6179 35.2174 12.4426 35.5679C12.2674 35.9183 12.0046 35.984 11.5665 35.7869C9.35906 34.9014 7.43327 33.4335 5.9945 31.5395C4.55573 29.6456 3.65792 27.3967 3.39681 25.0326C3.07287 22.836 3.31077 20.5932 4.08828 18.5134C4.8658 16.4337 6.15759 14.5848 7.84307 13.1394V13.0299C7.80408 12.9619 7.75196 12.9024 7.68975 12.8547C5.58274 10.8831 3.87274 8.52624 2.65211 5.91151C2.56799 5.77146 2.53719 5.60578 2.56535 5.44486C2.59351 5.28394 2.67875 5.13856 2.80543 5.0354C5.46677 2.57947 8.74445 0.891425 12.2893 0.151085C13.8535 -0.120774 15.4594 -0.0248111 16.98 0.431378C18.5007 0.887568 19.8942 1.69146 21.0504 2.77942C21.1141 2.82853 21.1656 2.89158 21.2011 2.96373C21.2365 3.03587 21.2549 3.11518 21.2549 3.19557C21.2549 3.27595 21.2365 3.35527 21.2011 3.42741C21.1656 3.49956 21.1141 3.56261 21.0504 3.61172C21.0013 3.67536 20.9383 3.72689 20.8661 3.76234C20.794 3.7978 20.7147 3.81623 20.6343 3.81623C20.5539 3.81623 20.4746 3.7978 20.4024 3.76234C20.3303 3.72689 20.2672 3.67536 20.2181 3.61172C19.2614 2.80897 18.1817 2.16555 17.0203 1.70618C16.1332 1.36174 15.1903 1.18355 14.2387 1.18051L14.4577 1.53096L19.0792 7.81705C19.0792 7.92657 19.2763 8.07989 19.4077 8.10179L24.533 9.13122L22.6274 6.37147C22.5817 6.30176 22.5304 6.23584 22.4741 6.17435C22.1675 5.7801 22.1675 5.45155 22.4741 5.23253C22.7808 5.0135 23.0874 5.0573 23.3721 5.42965C23.6569 5.802 23.9854 6.19625 24.2482 6.5905C24.7501 7.5366 25.3212 8.44438 25.9567 9.30644C26.7055 10.0941 27.5108 10.8261 28.366 11.4967C28.6069 11.6938 28.8259 11.9129 29.0669 12.1538C29.0669 11.7157 28.9573 11.2996 28.9135 10.8615C28.7434 9.62814 28.9007 8.37167 29.3697 7.21831C29.8388 6.06494 30.603 5.05528 31.5857 4.29071C33.2256 2.87722 35.1541 1.83827 37.2366 1.24622C37.3942 1.19243 37.566 1.19841 37.7194 1.26302C37.8729 1.32763 37.9973 1.44637 38.0689 1.59667C39.1528 3.48144 39.8037 5.58382 39.9744 7.75134C40.0752 8.93131 39.8772 10.1176 39.3987 11.2009C38.9202 12.2842 38.1766 13.2296 37.2366 13.9498C35.8526 15.0685 34.2698 15.9157 32.5713 16.4467L32.0894 16.622C32.0894 16.7753 32.1989 16.9067 32.2428 17.0381C33.1553 19.1865 33.6088 21.5019 33.5744 23.8358C33.5399 26.1698 33.0182 28.4707 32.0427 30.5913C31.0671 32.7118 29.6593 34.6052 27.9094 36.1499C26.1595 37.6947 24.1062 38.8568 21.881 39.5617C19.6558 40.2667 17.3079 40.4989 14.9877 40.2436C12.6675 39.9882 10.4263 39.2509 8.40766 38.079C6.38904 36.907 4.63755 35.3262 3.26547 33.4378C1.89338 31.5495 0.930976 29.3953 0.439934 27.1134C-0.0603292 25.0102 -0.1348 22.8282 0.220907 20.6959C0.220907 20.2359 0.527545 20.0607 0.899892 20.1264C1.27224 20.1921 1.44746 20.4549 1.38175 20.9149C0.673058 24.9812 1.60871 29.1625 3.98289 32.5389C6.35706 35.9153 9.97527 38.2103 14.0416 38.919C18.1078 39.6277 22.2891 38.692 25.6655 36.3178C29.0419 33.9437 31.3369 30.3255 32.0456 26.2592C32.6287 23.4237 32.3972 20.4811 31.3778 17.7718C30.3584 15.0624 28.5928 12.697 26.2852 10.9491L25.9567 10.7301H25.8471L24.0949 11.9348L24.4016 12.1538C26.6479 13.7145 28.3697 15.9183 29.3407 18.4755C30.3116 21.0328 30.4863 23.8239 29.8419 26.4822C29.1974 29.1406 27.7639 31.5419 25.7297 33.3706C23.6955 35.1993 21.1557 36.3699 18.444 36.7287C17.4449 36.7945 16.4425 36.7945 15.4433 36.7287C15.322 36.7174 15.2045 36.6803 15.0988 36.6198C14.993 36.5594 14.9014 36.477 14.8301 36.3783C14.5891 35.9621 14.8301 35.5679 15.4214 35.5679C16.0128 35.5679 16.7356 35.5679 17.3927 35.5679C20.1767 35.4216 22.8301 34.3412 24.9245 32.5012C27.0189 30.6612 28.4319 28.1689 28.9354 25.4269C29.2526 23.8068 29.2526 22.1407 28.9354 20.5207C27.8694 21.0254 26.9386 21.7761 26.2195 22.7109C25.8165 23.4935 25.7003 24.3924 25.8909 25.2517C26.04 25.9718 26.077 26.7106 26.0005 27.4419C25.8016 28.3932 25.3481 29.2726 24.6885 29.9862C24.0288 30.6999 23.1878 31.221 22.2551 31.4939C22.0014 31.6084 21.7248 31.6631 21.4466 31.6537C21.1684 31.6444 20.8961 31.5713 20.6506 31.4401C20.4051 31.3089 20.193 31.1231 20.0307 30.897C19.8684 30.6709 19.7602 30.4105 19.7144 30.136C19.52 29.4218 19.417 28.6858 19.4077 27.9457C19.4077 26.522 19.4077 25.0983 19.2982 23.6966C19.1887 22.2948 19.1011 22.4262 17.9183 22.5795C16.9906 22.725 16.0538 22.8055 15.1148 22.8204C14.6218 22.8058 14.1378 22.6854 13.6954 22.4672C13.2531 22.249 12.8629 21.9383 12.5513 21.556C12.2397 21.1738 12.0139 20.7289 11.8894 20.2517C11.7648 19.7745 11.7443 19.2761 11.8294 18.7903C12.0261 17.5857 12.6573 16.4949 13.6035 15.724L13.8663 15.5268ZM28.4755 19.4255C27.6008 16.7341 25.8406 14.4181 23.4816 12.8547C23.3592 12.7606 23.209 12.7095 23.0545 12.7095C22.9001 12.7095 22.7499 12.7606 22.6274 12.8547C20.7781 14.0831 18.6995 14.925 16.5166 15.3297C16.3282 15.3568 16.1441 15.4083 15.969 15.483L14.8739 16.2496C14.0607 16.7737 13.4325 17.5398 13.0778 18.4399C12.9184 18.8066 12.8544 19.2077 12.892 19.6058C12.9297 20.0039 13.0676 20.3859 13.2929 20.7163C13.5182 21.0466 13.8236 21.3144 14.1805 21.4947C14.5374 21.675 14.9342 21.7619 15.3338 21.7472C15.6912 21.7691 16.0496 21.7691 16.4071 21.7472L18.5973 21.4625C18.897 21.4167 19.2033 21.4741 19.466 21.6253C19.7287 21.7766 19.9321 22.0126 20.0429 22.2948C20.1927 22.5565 20.2824 22.8483 20.3057 23.149C20.3057 24.4851 20.4153 25.8211 20.481 27.1353C20.5023 27.9414 20.5681 28.7457 20.6781 29.5446C20.8095 30.4645 21.3133 30.7273 22.1675 30.3331C22.745 30.0775 23.2643 29.7067 23.6937 29.2435C24.123 28.7803 24.4533 28.2343 24.6644 27.6391C24.7653 27.336 24.8026 27.0154 24.7739 26.6972C24.7739 26.2592 24.6644 25.843 24.5987 25.405C24.3985 24.4793 24.5038 23.5137 24.8987 22.6528C25.2936 21.792 25.9568 21.0823 26.789 20.6302L28.4755 19.4255ZM12.5522 13.9936C13.9888 14.3646 15.4961 14.3646 16.9327 13.9936C19.5383 13.3605 21.9797 12.1809 24.0949 10.533L24.3359 10.314H24.1825L19.2763 9.30644C19.1897 9.29479 19.1015 9.30249 19.0182 9.329C18.9348 9.35551 18.8584 9.40017 18.7945 9.45976C17.8745 10.0949 16.9546 10.7739 16.0566 11.431L12.5522 13.9936ZM8.47825 32.4358C8.47487 31.4164 8.19477 30.4172 7.66785 29.5446C7.50949 29.3133 7.40894 29.0474 7.37464 28.7691C7.34033 28.4909 7.37329 28.2085 7.47072 27.9457C7.66785 27.3981 7.90878 26.8506 8.12781 26.3249C8.34683 25.7992 8.69728 25.0326 8.96011 24.3755C8.99907 24.3005 9.02083 24.2178 9.02382 24.1333C9.02681 24.0488 9.01095 23.9647 8.9774 23.8871C8.94384 23.8095 8.89343 23.7403 8.82983 23.6847C8.76622 23.629 8.69102 23.5881 8.60967 23.5651L7.82117 23.3023C7.39679 23.2072 7.0001 23.0154 6.66198 22.7419C6.32387 22.4684 6.05346 22.1205 5.87182 21.7253C5.63089 21.2434 5.34615 20.7616 5.08332 20.2797L4.86429 19.9074C4.23571 22.1247 4.24111 24.4739 4.87989 26.6883C5.51867 28.9028 6.76526 30.8939 8.47825 32.4358ZM17.5241 8.9779H17.3489L12.9683 8.14559C12.8749 8.13456 12.7802 8.14246 12.6899 8.1688C12.5996 8.19514 12.5155 8.23939 12.4426 8.29891L8.50015 10.9491L8.084 11.2777C8.93218 12.1094 9.89914 12.8107 10.9533 13.3585C11.0446 13.4277 11.1562 13.4652 11.2709 13.4652C11.3855 13.4652 11.4971 13.4277 11.5884 13.3585C13.0559 12.2414 14.5453 11.1682 15.969 10.073L17.5241 8.9779ZM17.5241 7.75134L17.2175 7.33519C16.0128 5.69248 14.8301 4.04978 13.6254 2.42897C13.3845 2.03472 13.1435 1.44335 12.7493 1.33383C12.2312 1.28697 11.7099 1.37763 11.238 1.59667C10.6685 1.74999 10.121 1.94711 9.50768 2.18804C10.5809 3.63362 11.698 4.9916 12.5741 6.37147C12.6917 6.55222 12.8461 6.70612 13.0273 6.82312C13.2085 6.94012 13.4123 7.01759 13.6254 7.05046L17.5241 7.75134ZM32.5275 15.1545C33.0751 14.9355 33.6007 14.7164 34.1264 14.4536C35.5108 13.8273 36.7213 12.8725 37.6527 11.6719C38.2131 10.924 38.5612 10.0386 38.6603 9.10932C37.3899 9.63498 36.1633 10.1606 34.9368 10.6206C34.6856 10.7062 34.4568 10.8471 34.2673 11.0328C34.0778 11.2185 33.9323 11.4444 33.8417 11.6938C33.535 12.8985 33.0313 14.0155 32.5713 15.1545H32.5275ZM31.3666 14.7821L33.0313 10.9491C33.0741 10.7914 33.0741 10.6251 33.0313 10.4673L31.3447 6.5686C31.3059 6.47149 31.262 6.37645 31.2133 6.28386C29.5268 8.29891 29.943 11.891 31.4104 14.7821H31.3666ZM7.16408 10.533L10.9533 7.68564L4.38243 6.37147L4.22911 6.5686L7.16408 10.533ZM33.754 9.26264L36.4919 2.69181C34.8755 3.22461 33.3849 4.08171 32.1113 5.21062L33.754 9.26264ZM11.2818 6.5686L8.43444 2.6699C6.99172 3.36028 5.6323 4.21267 4.38243 5.21062L11.2818 6.5686ZM37.5651 3.19557L35.0463 9.48166C36.3605 8.93409 37.587 8.45223 38.7917 7.92657C38.8321 7.90073 38.8654 7.8651 38.8883 7.82298C38.9113 7.78086 38.9233 7.73362 38.9231 7.68564C38.7594 6.1094 38.2986 4.57843 37.5651 3.17367V3.19557Z" fill="#03FFA2"/>
</svg>
