<svg width="33" height="38" viewBox="0 0 33 38" fill="none" xmlns="http://www.w3.org/2000/svg">
<path d="M6.7606 0H27.69L32.7151 5.05319C32.8709 5.21244 32.9708 5.41599 33 5.63431V30.9761C33 31.5319 32.8446 31.6582 32.3006 31.6582H29.7104V34.1848C29.7104 34.7154 29.7104 34.8418 29.0369 34.8418H26.4466V37.2168C26.4466 37.8989 26.4466 38 25.6695 38H0.77708C0 37.8989 0 37.8989 0 37.1915V7.42819C0 6.31649 0 6.31649 1.13972 6.31649H3.26374V4.09309C3.26374 3.18351 3.26374 3.18351 4.22214 3.18351H6.47567C6.47567 2.2992 6.47567 1.49069 6.47567 0.656915C6.53832 0.425902 6.63425 0.204727 6.7606 0ZM15.8265 19.5811C15.8265 19.0758 15.8265 18.621 15.8265 18.1915C15.8265 17.762 15.9819 17.6862 16.3705 17.6862H17.9246C18.2873 17.6862 18.7535 17.6862 18.9608 17.6862C19.168 17.6862 18.9608 17.0545 18.9608 16.7008C18.9608 16.246 19.1162 16.0944 19.5824 16.0944H22.4835C23.0534 16.0944 23.1829 16.2207 23.1829 16.8019V25.8976H24.1413C24.2142 25.071 24.589 24.2974 25.1976 23.7177C25.8061 23.138 26.6079 22.7908 27.4568 22.7394C28.157 22.6894 28.8554 22.8575 29.4513 23.2194C29.903 23.4937 30.2862 23.8628 30.573 24.2999C30.8598 24.737 31.043 25.2311 31.1091 25.746H32.0416V5.83644H27.69C27.146 5.83644 27.0165 5.71011 27.0165 5.17952C27.0165 3.89096 27.0165 2.65293 27.0165 1.31383V0.909575H7.43407V25.746H9.35086V22.1077C9.35086 21.5519 9.48038 21.4508 10.0502 21.4255H12.6405V20.2128C12.6405 19.6569 12.6405 19.5559 13.314 19.5559L15.8265 19.5811ZM0.932496 37.0652H25.5659V34.8418H3.70408C3.64061 34.8419 3.57779 34.8293 3.51946 34.8049C3.46114 34.7805 3.40854 34.7447 3.36489 34.6997C3.32124 34.6548 3.28745 34.6016 3.2656 34.5435C3.24376 34.4854 3.23431 34.4235 3.23783 34.3617V7.22606H0.932496V37.0652ZM4.19623 4.06782V33.8816H28.8038V31.6582H7.27865C6.57928 31.6582 6.47567 31.6582 6.47567 30.875V4.06782H4.19623ZM13.6507 30.7234H32.0675V26.6809H31.0832C30.9521 27.4767 30.5423 28.2036 29.9237 28.7379C29.305 29.2723 28.5157 29.581 27.69 29.6117C26.945 29.6411 26.2098 29.4375 25.5918 29.0306C24.7967 28.479 24.2569 27.6437 24.0895 26.7061H13.6507V30.7234ZM22.2504 25.6702V16.8524H19.9969V25.7207L22.2504 25.6702ZM16.759 18.5452V25.7207H18.9867V18.5452H16.759ZM30.2025 26.125C30.2025 25.4549 29.9296 24.8123 29.4438 24.3384C28.9581 23.8646 28.2992 23.5984 27.6122 23.5984C26.9253 23.5984 26.2664 23.8646 25.7807 24.3384C25.2949 24.8123 25.022 25.4549 25.022 26.125C25.022 26.7951 25.2949 27.4377 25.7807 27.9116C26.2664 28.3854 26.9253 28.6516 27.6122 28.6516C28.2816 28.6521 28.9253 28.3998 29.4082 27.9477C29.8911 27.4955 30.1757 26.8785 30.2025 26.2261V26.125ZM15.8006 25.6197V20.4907H13.5471V25.7207L15.8006 25.6197ZM10.102 30.6729V26.6303H7.51177V30.6729H10.102ZM10.2834 25.6197H12.5369V22.3604H10.3611L10.2834 25.6197ZM12.6923 26.6051H11.0345V30.5971H12.6923V26.6051ZM31.2386 5.05319L27.949 1.69282V5.05319H31.2386Z" fill="#03FFA2"/>
<path d="M10.3611 5.9375C9.79121 5.9375 9.6876 5.9375 9.6876 5.28059V3.51197C9.6876 2.98138 9.6876 2.85505 10.3611 2.85505H22.8462C23.4419 2.85505 23.5455 2.98138 23.5455 3.5625C23.5455 4.14362 23.5455 4.72473 23.5455 5.30585C23.5455 5.88697 23.416 5.9375 22.8721 5.9375H10.3611ZM10.5683 5.05319H22.613V3.78989H10.5683V5.05319Z" fill="#03FFA2"/>
<path d="M15.179 8.2367C15.179 8.2367 14.9199 8.2367 14.8422 8.2367C14.6748 8.14213 14.5397 8.00152 14.4537 7.83245C14.4537 7.57979 14.4537 7.42819 14.8422 7.37766C14.9368 7.36486 15.0326 7.36486 15.1272 7.37766H29.1146C29.2178 7.36498 29.3222 7.36498 29.4254 7.37766C29.6845 7.37766 29.8658 7.57979 29.814 7.83245C29.728 8.00152 29.5929 8.14213 29.4254 8.2367C29.4254 8.2367 29.1923 8.2367 29.0887 8.2367H15.179Z" fill="#03FFA2"/>
<path d="M17.3289 10.2327H10.3611C10.3611 10.2327 10.0761 10.2327 9.99843 10.2327C9.92072 10.2327 9.60989 9.98005 9.63579 9.82846C9.67539 9.64343 9.78675 9.48049 9.94662 9.37367L10.3611 9.3484H24.3226C24.3226 9.3484 24.6075 9.3484 24.6852 9.3484C24.763 9.3484 25.022 9.6516 25.022 9.80319C25.022 9.95479 24.8148 10.1064 24.6593 10.2074C24.5039 10.3085 24.4003 10.2074 24.2708 10.2074L17.3289 10.2327Z" fill="#03FFA2"/>
<path d="M17.3289 14.25H10.3611C10.3611 14.25 10.102 14.25 9.99843 14.25C9.89482 14.25 9.63579 13.9973 9.63579 13.871C9.6742 13.6787 9.78511 13.5074 9.94662 13.391C9.94662 13.391 10.1797 13.391 10.3093 13.391H24.3485C24.3485 13.391 24.6593 13.391 24.737 13.391C24.882 13.5068 24.9824 13.6671 25.022 13.8457C25.022 13.8457 24.8148 14.1237 24.6593 14.1995C24.5039 14.2753 24.4262 14.1995 24.2967 14.1995L17.3289 14.25Z" fill="#03FFA2"/>
<path d="M22.1209 12.254H15.2049C15.2049 12.254 14.9458 12.254 14.8681 12.254C14.7904 12.254 14.5055 12.0266 14.4537 11.875C14.4019 11.7234 14.4537 11.4455 14.8163 11.3949H29.0887C29.2441 11.3949 29.4254 11.3949 29.5031 11.3949C29.5808 11.3949 29.814 11.6981 29.7881 11.8497C29.7622 12.0013 29.5808 12.1277 29.4254 12.2287C29.27 12.3298 29.1923 12.2287 29.0628 12.2287L22.1209 12.254Z" fill="#03FFA2"/>
<path d="M27.6122 17.9388C27.2496 17.9388 27.0424 17.762 27.0683 17.484C27.0942 17.2061 27.3014 17.0545 27.6122 17.0545H31.0832C31.4199 17.0545 31.6272 17.0545 31.6272 17.484C31.6272 17.9136 31.4199 17.9388 31.1091 17.9388H27.6122Z" fill="#03FFA2"/>
<path d="M27.6381 21.6782C27.3273 21.6782 27.0942 21.6782 27.0683 21.2487C27.0424 20.8191 27.2496 20.7939 27.6122 20.7939H31.0832C31.4199 20.7939 31.679 20.9707 31.6531 21.2234C31.6272 21.4761 31.3681 21.6782 31.0573 21.6782H27.6381Z" fill="#03FFA2"/>
<path d="M28.4929 18.9242C28.8556 18.9242 29.0628 19.0758 29.0369 19.379C29.011 19.6822 28.8038 19.8085 28.4929 19.8085H25.2033C24.8925 19.8085 24.6593 19.8085 24.6593 19.379C24.6593 18.9495 24.8407 18.9242 25.2033 18.9242H28.4929Z" fill="#03FFA2"/>
<path d="M12.5887 16.2713C12.2779 16.2713 12.0706 16.1449 12.0706 15.8165C12.0706 15.488 12.3038 15.387 12.5887 15.387H15.9819C16.3446 15.387 16.5518 15.5638 16.5259 15.8418C16.5 16.1197 16.2669 16.2713 15.956 16.2713H12.5887Z" fill="#03FFA2"/>
<path d="M11.1641 7.35239H12.2261C12.2903 7.34483 12.3555 7.35118 12.417 7.37099C12.4784 7.3908 12.5347 7.42358 12.5817 7.46701C12.6287 7.51043 12.6653 7.56343 12.6889 7.62223C12.7125 7.68103 12.7225 7.74418 12.7182 7.80718C12.7225 7.86688 12.7132 7.92678 12.691 7.98254C12.6687 8.03831 12.634 8.08855 12.5894 8.12965C12.5448 8.17074 12.4914 8.20166 12.433 8.22017C12.3747 8.23869 12.3128 8.24433 12.252 8.2367H10.1279C9.84301 8.2367 9.63579 8.08511 9.6617 7.78191C9.65736 7.72221 9.66667 7.66232 9.68895 7.60655C9.71123 7.55079 9.74593 7.50055 9.79054 7.45945C9.83514 7.41836 9.88855 7.38744 9.9469 7.36892C10.0053 7.35041 10.0671 7.34476 10.1279 7.35239C10.3611 7.32713 10.8273 7.35239 11.1641 7.35239Z" fill="#03FFA2"/>
<path d="M29.3218 13.3657C29.6327 13.3657 29.814 13.5173 29.814 13.8205C29.814 14.1237 29.6327 14.25 29.3218 14.25H27.2496C26.9647 14.25 26.7575 14.25 26.7575 13.8205C26.7575 13.391 26.9647 13.391 27.2496 13.3657H29.3218Z" fill="#03FFA2"/>
<path d="M10.1279 12.254C10.0671 12.2616 10.0053 12.256 9.9469 12.2375C9.88855 12.2189 9.83514 12.188 9.79054 12.1469C9.74593 12.1058 9.71123 12.0556 9.68895 11.9998C9.66667 11.9441 9.65736 11.8842 9.6617 11.8245C9.6617 11.5213 9.84301 11.3697 10.1279 11.3697H12.252C12.3152 11.3613 12.3796 11.3674 12.44 11.3873C12.5005 11.4072 12.5554 11.4404 12.6006 11.4844C12.6457 11.5285 12.6798 11.582 12.7002 11.641C12.7206 11.7 12.7268 11.7628 12.7182 11.8245C12.7183 11.8831 12.7061 11.9411 12.6824 11.9949C12.6587 12.0487 12.6239 12.0972 12.5802 12.1375C12.5365 12.1777 12.4849 12.2088 12.4284 12.2288C12.372 12.2489 12.3119 12.2574 12.252 12.254H10.1279Z" fill="#03FFA2"/>
<path d="M27.3014 10.2327C26.9906 10.2327 26.7575 10.2327 26.7575 9.80319C26.7575 9.37367 26.9647 9.3484 27.2755 9.3484H29.3218C29.6068 9.3484 29.814 9.3484 29.814 9.77793C29.814 10.2074 29.6068 10.2327 29.2959 10.2327H27.3014Z" fill="#03FFA2"/>
<path d="M25.0997 17.9388C24.8148 17.9388 24.6334 17.762 24.6593 17.484C24.655 17.4243 24.6643 17.3644 24.6866 17.3087C24.7089 17.2529 24.7436 17.2027 24.7882 17.1616C24.8328 17.1205 24.8862 17.0896 24.9445 17.0711C25.0029 17.0525 25.0647 17.0469 25.1256 17.0545H25.6695C25.9804 17.0545 26.2135 17.0545 26.2135 17.484C26.2135 17.9136 26.0063 17.9388 25.6954 17.9388H25.0997Z" fill="#03FFA2"/>
<path d="M30.7465 19.8085C30.7465 19.8085 30.4356 19.8085 30.3579 19.8085C30.2802 19.8085 29.9953 19.5306 29.9953 19.379C30.0158 19.2872 30.0598 19.202 30.1232 19.1313C30.1866 19.0606 30.2674 19.0067 30.3579 18.9747C30.5807 18.9365 30.8086 18.9365 31.0314 18.9747C31.3163 18.9747 31.5235 18.9747 31.5235 19.4043C31.5235 19.8338 31.3422 19.859 31.0314 19.859L30.7465 19.8085Z" fill="#03FFA2"/>
<path d="M25.4105 21.6782C24.8666 21.6782 24.6334 21.5519 24.6334 21.2234C24.6334 20.8949 24.8666 20.7686 25.4105 20.7686H25.9027C26.1876 20.7686 26.3689 20.9455 26.343 21.2234C26.3171 21.5013 26.1617 21.6277 25.8768 21.6529L25.4105 21.6782Z" fill="#03FFA2"/>
<path d="M10.3611 16.2713C9.81711 16.2713 9.60989 16.1449 9.58399 15.8418C9.55809 15.5386 9.81711 15.3617 10.387 15.3617C10.9568 15.3617 11.19 15.5133 11.1641 15.8418C11.1381 16.1702 11.0086 16.2713 10.3611 16.2713Z" fill="#03FFA2"/>
<path d="M27.6122 23.9774C27.7301 24.0255 27.8429 24.0848 27.949 24.1543C28.1679 24.364 28.3673 24.5923 28.5447 24.8364C28.6023 24.8822 28.6485 24.94 28.6799 25.0057C28.7113 25.0713 28.7271 25.143 28.7261 25.2154C28.7261 25.3923 28.7261 25.6449 28.4929 25.6955C28.2598 25.746 28.1303 25.6955 27.9231 25.5439C27.7159 25.3923 27.9231 25.5439 27.9231 25.3923C27.8225 25.3576 27.7128 25.3576 27.6122 25.3923C27.6122 25.3923 27.4568 25.5439 27.4827 25.6197C27.4922 25.6592 27.5112 25.6958 27.5383 25.7266C27.5653 25.7574 27.5996 25.7814 27.6381 25.7965C27.7983 25.8585 27.9627 25.9092 28.1303 25.9481C28.309 26.0168 28.467 26.1285 28.5897 26.2727C28.7123 26.4169 28.7956 26.589 28.8318 26.773C28.8679 26.9571 28.8559 27.147 28.7966 27.3253C28.7374 27.5035 28.6329 27.6642 28.4929 27.7926C28.3609 27.9104 28.2474 28.0466 28.1562 28.1968C28.1137 28.2593 28.0559 28.3107 27.9881 28.3461C27.9203 28.3816 27.8446 28.4002 27.7677 28.4002C27.6907 28.4002 27.615 28.3816 27.5472 28.3461C27.4794 28.3107 27.4217 28.2593 27.3791 28.1968C27.3791 28.0452 27.1201 27.9189 27.0165 27.7673C26.8633 27.6285 26.7476 27.4549 26.6798 27.262C26.6767 27.1696 26.6962 27.0779 26.7368 26.9944C26.7773 26.911 26.8377 26.8381 26.9129 26.7819C27.0424 26.7819 27.2755 26.7819 27.4309 26.7819C27.5863 26.7819 27.4309 26.9335 27.6122 26.984C27.6966 27.0094 27.7869 27.0094 27.8713 26.984C27.8855 26.9522 27.8929 26.9178 27.8929 26.883C27.8929 26.8482 27.8855 26.8138 27.8713 26.7819C27.8658 26.7379 27.8486 26.696 27.8213 26.6605C27.794 26.6251 27.7577 26.5972 27.7159 26.5798L27.1978 26.4282C27.0201 26.3633 26.8618 26.2561 26.7373 26.1164C26.6128 25.9767 26.526 25.8089 26.4849 25.6282C26.4437 25.4475 26.4494 25.2597 26.5016 25.0817C26.5537 24.9037 26.6506 24.7413 26.7834 24.609C26.9647 24.4322 27.0942 24.2301 27.2755 24.0785C27.3853 24.0374 27.4978 24.0036 27.6122 23.9774Z" fill="#03FFA2"/>
</svg>
