<svg width="25" height="25" viewBox="0 0 25 25" fill="none" xmlns="http://www.w3.org/2000/svg">
<path d="M12.5 7.5L7.5 12.5L12.5 17.5L14.25 15.75L12.25 13.75L17.5 13.75L17.5 11.25L12.25 11.25L14.25 9.25L12.5 7.5ZM12.5 -1.09278e-06C14.2292 -9.41616e-07 15.8542 0.328124 17.375 0.984374C18.8958 1.64062 20.2188 2.53125 21.3438 3.65625C22.4688 4.78125 23.3594 6.10417 24.0156 7.625C24.6719 9.14583 25 10.7708 25 12.5C25 14.2292 24.6719 15.8542 24.0156 17.375C23.3594 18.8958 22.4688 20.2187 21.3438 21.3437C20.2188 22.4687 18.8958 23.3594 17.375 24.0156C15.8542 24.6719 14.2292 25 12.5 25C10.7708 25 9.14583 24.6719 7.625 24.0156C6.10417 23.3594 4.78125 22.4687 3.65625 21.3437C2.53125 20.2187 1.64063 18.8958 0.984376 17.375C0.328126 15.8542 9.41616e-07 14.2292 1.09278e-06 12.5C1.24395e-06 10.7708 0.328126 9.14583 0.984377 7.625C1.64063 6.10416 2.53125 4.78125 3.65625 3.65625C4.78125 2.53125 6.10417 1.64062 7.625 0.984373C9.14584 0.328124 10.7708 -1.24395e-06 12.5 -1.09278e-06ZM12.5 2.5C9.70833 2.5 7.34375 3.46875 5.40625 5.40625C3.46875 7.34375 2.5 9.70833 2.5 12.5C2.5 15.2917 3.46875 17.6562 5.40625 19.5937C7.34375 21.5312 9.70833 22.5 12.5 22.5C15.2917 22.5 17.6563 21.5312 19.5938 19.5937C21.5313 17.6562 22.5 15.2917 22.5 12.5C22.5 9.70833 21.5313 7.34375 19.5938 5.40625C17.6563 3.46875 15.2917 2.5 12.5 2.5Z" fill="#03FFA2" fill-opacity="0.6"/>
</svg>
