<svg width="25" height="25" viewBox="0 0 25 25" fill="none" xmlns="http://www.w3.org/2000/svg">
<path d="M12.5 7.5L17.5 12.5L12.5 17.5L10.75 15.75L12.75 13.75L7.5 13.75L7.5 11.25L12.75 11.25L10.75 9.25L12.5 7.5ZM12.5 -1.09278e-06C10.7708 -9.41616e-07 9.14583 0.328124 7.625 0.984374C6.10417 1.64062 4.78125 2.53125 3.65625 3.65625C2.53125 4.78125 1.64063 6.10417 0.984377 7.625C0.328127 9.14583 2.57074e-06 10.7708 2.72191e-06 12.5C2.87308e-06 14.2292 0.328128 15.8542 0.984378 17.375C1.64063 18.8958 2.53125 20.2187 3.65625 21.3437C4.78125 22.4687 6.10417 23.3594 7.625 24.0156C9.14584 24.6719 10.7708 25 12.5 25C14.2292 25 15.8542 24.6719 17.375 24.0156C18.8958 23.3594 20.2188 22.4687 21.3438 21.3437C22.4688 20.2187 23.3594 18.8958 24.0156 17.375C24.6719 15.8542 25 14.2292 25 12.5C25 10.7708 24.6719 9.14583 24.0156 7.625C23.3594 6.10416 22.4688 4.78125 21.3438 3.65625C20.2188 2.53125 18.8958 1.64062 17.375 0.984373C15.8542 0.328124 14.2292 -1.24395e-06 12.5 -1.09278e-06ZM12.5 2.5C15.2917 2.5 17.6563 3.46875 19.5938 5.40625C21.5313 7.34375 22.5 9.70833 22.5 12.5C22.5 15.2917 21.5313 17.6562 19.5938 19.5937C17.6563 21.5312 15.2917 22.5 12.5 22.5C9.70834 22.5 7.34375 21.5312 5.40625 19.5937C3.46875 17.6562 2.5 15.2917 2.5 12.5C2.5 9.70833 3.46875 7.34375 5.40625 5.40625C7.34375 3.46875 9.70833 2.5 12.5 2.5Z" fill="#03FFA2" fill-opacity="0.6"/>
</svg>
