<svg width="372" height="588" viewBox="0 0 372 588" fill="none" xmlns="http://www.w3.org/2000/svg">
<mask id="path-1-inside-1_31_51" fill="white">
<path d="M420.33 209.349C385.705 253.025 359.187 262.66 232.049 277.83L146.92 288.06C142.647 288.594 141.614 284.755 137.87 254.382C133.827 221.574 131.538 224.218 168.109 219.786C351.766 197.508 356.993 201.182 380.705 161.172C419.497 95.7833 322.703 30.7518 275.434 90.4436C264.177 104.638 251.326 143.069 252.622 159.114C253.364 168.859 250.765 169.792 221.1 170.346C183.527 171.061 182.922 170.322 189.405 132.856C201.701 62.53 236.456 19.6937 293.231 4.853C411.583 -26.0233 497.484 112.073 420.36 209.297M218.865 547.664C119.712 652.448 -49.8177 532.1 14.4133 402.473C44.247 342.321 82.9157 325.097 225.961 308.271C317.441 297.516 307.77 294.901 312.575 331.595C317.279 367.814 328.23 362.434 225.824 374.172C110.983 387.742 97.4993 392.705 75.5078 429.563C48.1404 475.473 85.2024 528.111 138.993 519.74C168.983 515.105 202.647 464.819 202.031 425.734C201.897 407.249 243.09 422.7 263.683 423.634C278.248 424.31 245.137 519.791 218.865 547.664Z"/>
</mask>
<path d="M232.049 277.83L231.931 276.837L231.93 276.837L232.049 277.83ZM146.92 288.06L146.801 287.067L146.796 287.067L146.92 288.06ZM137.87 254.382L136.878 254.504L136.878 254.504L137.87 254.382ZM168.109 219.786L168.23 220.779L168.23 220.779L168.109 219.786ZM380.705 161.172L379.845 160.662L379.845 160.662L380.705 161.172ZM275.434 90.4436L276.217 91.065L276.218 91.0644L275.434 90.4436ZM252.622 159.114L253.619 159.038L253.618 159.034L252.622 159.114ZM221.1 170.346L221.081 169.346L221.081 169.346L221.1 170.346ZM189.405 132.856L188.42 132.684L188.419 132.686L189.405 132.856ZM293.231 4.853L292.978 3.88538L292.978 3.88552L293.231 4.853ZM218.865 547.664L219.591 548.351L219.592 548.35L218.865 547.664ZM14.4133 402.473L13.5175 402.029L13.5173 402.029L14.4133 402.473ZM225.961 308.271L225.845 307.278L225.845 307.278L225.961 308.271ZM312.575 331.595L313.566 331.466L313.566 331.465L312.575 331.595ZM225.824 374.172L225.71 373.179L225.706 373.179L225.824 374.172ZM75.5078 429.563L74.6491 429.05L74.6489 429.051L75.5078 429.563ZM138.993 519.74L138.84 518.751L138.839 518.751L138.993 519.74ZM202.031 425.734L201.031 425.741L201.031 425.75L202.031 425.734ZM263.683 423.634L263.729 422.635L263.728 422.635L263.683 423.634ZM419.546 208.727C402.314 230.464 387.17 243.655 360.54 253.34C333.817 263.058 295.52 269.25 231.931 276.837L232.168 278.823C295.717 271.24 334.247 265.03 361.224 255.219C388.293 245.375 403.72 231.91 421.114 209.97L419.546 208.727ZM231.93 276.837L146.801 287.067L147.039 289.053L232.168 278.822L231.93 276.837ZM146.796 287.067C145.903 287.179 145.397 287.05 144.938 286.589C144.38 286.029 143.787 284.875 143.162 282.552C141.924 277.946 140.738 269.477 138.863 254.259L136.878 254.504C138.746 269.659 139.948 278.297 141.231 283.071C141.867 285.437 142.566 287.041 143.521 288C144.575 289.058 145.8 289.208 147.044 289.052L146.796 287.067ZM138.863 254.259C137.846 246.009 136.955 240.096 136.745 235.711C136.535 231.311 137.041 228.783 138.512 227.101C140.011 225.388 142.706 224.319 147.567 223.431C152.393 222.55 159.048 221.891 168.23 220.779L167.989 218.793C158.886 219.896 152.112 220.569 147.208 221.464C142.339 222.353 139.002 223.504 137.007 225.785C134.984 228.097 134.534 231.337 134.748 235.807C134.962 240.291 135.873 246.351 136.878 254.504L138.863 254.259ZM168.23 220.779C259.991 209.648 307.322 204.986 334.631 198.098C348.323 194.645 357.1 190.607 363.954 184.842C370.791 179.092 375.638 171.684 381.566 161.682L379.845 160.662C373.916 170.666 369.217 177.802 362.667 183.312C356.132 188.807 347.678 192.745 334.142 196.159C306.995 203.006 259.884 207.646 167.989 218.793L168.23 220.779ZM381.565 161.682C401.297 128.421 386.484 95.2612 360.9 78.0726C335.319 60.8856 298.685 59.4712 274.65 89.8228L276.218 91.0644C299.452 61.7242 334.85 62.9797 359.785 79.7327C384.718 96.4842 398.905 128.534 379.845 160.662L381.565 161.682ZM274.65 89.8222C268.911 97.0593 262.84 110.351 258.372 123.769C253.909 137.171 250.959 150.956 251.625 159.195L253.618 159.034C252.988 151.228 255.816 137.774 260.269 124.401C264.717 111.044 270.7 98.0222 276.217 91.065L274.65 89.8222ZM251.625 159.19C251.81 161.63 251.76 163.298 251.256 164.522C250.792 165.653 249.879 166.539 247.928 167.235C245.932 167.946 242.964 168.413 238.573 168.73C234.199 169.046 228.499 169.207 221.081 169.346L221.119 171.346C228.534 171.207 234.283 171.045 238.717 170.725C243.133 170.406 246.331 169.927 248.6 169.119C250.913 168.294 252.365 167.085 253.106 165.283C253.808 163.574 253.804 161.471 253.619 159.038L251.625 159.19ZM221.081 169.346C211.667 169.525 204.654 169.61 199.49 169.064C194.303 168.515 191.25 167.351 189.495 165.274C187.737 163.192 187.072 159.95 187.337 154.671C187.601 149.418 188.766 142.413 190.39 133.027L188.419 132.686C186.802 142.032 185.611 149.17 185.34 154.57C185.069 159.945 185.688 163.867 187.968 166.564C190.25 169.266 193.989 170.493 199.28 171.053C204.594 171.615 211.747 171.524 221.119 171.346L221.081 169.346ZM190.39 133.028C196.517 97.9848 208.227 69.8666 225.415 48.6775C242.594 27.4991 265.288 13.1907 293.484 5.82047L292.978 3.88552C264.399 11.356 241.328 25.886 223.862 47.4175C206.405 68.9383 194.589 97.4013 188.42 132.684L190.39 133.028ZM293.483 5.82062C410.819 -24.7907 496.16 112.134 419.577 208.676L421.144 209.919C498.808 112.013 412.346 -27.2558 292.978 3.88538L293.483 5.82062ZM218.138 546.977C168.961 598.946 102.362 595.112 55.949 562.157C9.5343 529.202 -16.5527 467.219 15.3094 402.917L13.5173 402.029C-18.8517 467.354 7.71059 530.359 54.7911 563.788C101.873 597.218 169.615 601.165 219.591 548.351L218.138 546.977ZM15.3092 402.918C30.1454 373.004 47.1177 353.853 78.1396 340.038C109.26 326.18 154.545 317.678 226.078 309.264L225.845 307.278C154.332 315.69 108.76 324.213 77.326 338.211C45.7938 352.253 28.515 371.79 13.5175 402.029L15.3092 402.918ZM226.078 309.264C248.971 306.573 265.489 304.396 277.51 303.213C289.575 302.026 296.908 301.866 301.511 303.105C303.769 303.713 305.309 304.644 306.428 305.915C307.559 307.199 308.33 308.911 308.909 311.203C309.489 313.501 309.857 316.304 310.232 319.725C310.604 323.127 310.981 327.124 311.583 331.725L313.566 331.465C312.967 326.892 312.596 322.945 312.22 319.508C311.846 316.091 311.466 313.162 310.848 310.713C310.228 308.258 309.351 306.208 307.929 304.593C306.496 302.965 304.582 301.86 302.031 301.174C297.016 299.824 289.314 300.042 277.314 301.223C265.27 302.408 248.692 304.592 225.845 307.278L226.078 309.264ZM311.583 331.724C312.174 336.273 312.864 340.175 313.411 343.504C313.962 346.854 314.363 349.592 314.405 351.895C314.448 354.189 314.131 355.955 313.322 357.4C312.52 358.833 311.169 360.065 308.925 361.166C304.363 363.405 296.452 364.952 283.115 366.669C269.822 368.38 251.334 370.241 225.71 373.179L225.937 375.166C251.517 372.234 270.062 370.366 283.37 368.652C296.635 366.945 304.893 365.372 309.806 362.961C312.3 361.738 314.013 360.262 315.068 358.376C316.117 356.502 316.451 354.337 316.405 351.858C316.36 349.389 315.933 346.514 315.385 343.18C314.833 339.825 314.152 335.972 313.566 331.466L311.583 331.724ZM225.706 373.179C168.33 379.959 136.112 384.602 115.501 392.196C105.158 396.007 97.6987 400.573 91.433 406.543C85.1814 412.499 80.1596 419.815 74.6491 429.05L76.3666 430.075C81.8518 420.882 86.7622 413.755 92.8126 407.991C98.8489 402.24 106.061 397.806 116.193 394.073C136.532 386.579 168.476 381.955 225.941 375.165L225.706 373.179ZM74.6489 429.051C46.8167 475.741 84.5807 529.219 139.147 520.728L138.839 518.751C85.824 527.002 49.4642 475.205 76.3668 430.075L74.6489 429.051ZM139.146 520.728C154.561 518.346 170.682 504.324 182.82 486.213C194.985 468.062 203.343 445.521 203.031 425.718L201.031 425.75C201.335 445.031 193.17 467.177 181.159 485.099C169.121 503.06 153.415 516.499 138.84 518.751L139.146 520.728ZM203.031 425.727C203.015 423.612 203.586 422.079 204.556 420.949C205.538 419.804 207.014 418.976 208.975 418.441C212.932 417.361 218.538 417.56 224.955 418.393C231.345 419.223 238.379 420.656 245.156 421.951C251.9 423.24 258.406 424.395 263.638 424.633L263.728 422.635C258.663 422.405 252.297 421.279 245.531 419.986C238.796 418.699 231.679 417.249 225.213 416.41C218.775 415.574 212.821 415.318 208.448 416.511C206.244 417.113 204.363 418.103 203.038 419.647C201.7 421.206 201.013 423.234 201.031 425.741L203.031 425.727ZM263.637 424.633C264.224 424.66 264.679 424.906 265.065 425.428C265.482 425.989 265.823 426.884 266.029 428.172C266.441 430.745 266.26 434.514 265.531 439.226C264.078 448.62 260.506 461.424 255.646 475.116C250.788 488.799 244.658 503.328 238.109 516.166C231.55 529.022 224.606 540.114 218.137 546.978L219.592 548.35C226.259 541.277 233.306 529.982 239.89 517.075C246.483 504.15 252.647 489.54 257.53 475.785C262.411 462.038 266.028 449.102 267.508 439.532C268.245 434.763 268.467 430.744 268.004 427.856C267.773 426.414 267.358 425.162 266.672 424.236C265.956 423.271 264.963 422.692 263.729 422.635L263.637 424.633Z" fill="#03FFA2" fill-opacity="0.4" mask="url(#path-1-inside-1_31_51)"/>
</svg>
