<svg width="343" height="600" viewBox="0 0 343 600" fill="none" xmlns="http://www.w3.org/2000/svg">
<mask id="path-1-inside-1_57_4" fill="white">
<path d="M164 90.9167C181.803 143.733 175.457 171.224 119.002 286.146L81.2625 363.135C79.3855 367.011 75.6022 365.789 48.0825 352.402C18.3573 337.943 19.3295 341.301 35.5114 308.207C116.756 141.998 122.683 139.612 102.018 97.9464C68.266 29.8196 -38.9646 75.6417 -14.6053 147.781C-8.82198 164.95 16.4289 196.644 30.5955 204.288C39.1756 208.967 38.5438 211.655 22.8663 236.846C3.02152 268.758 2.07189 268.864 -25.834 243.038C-78.1457 194.453 -95.1735 141.985 -76.7308 86.2762C-38.235 -29.8211 124.369 -26.7468 163.973 90.8631M338.216 444.037C372.175 584.243 178.956 660.99 105.151 536.565C70.9183 478.803 77.5086 436.988 141.229 307.818C181.985 225.216 174.528 231.906 207.929 247.842C240.875 263.604 242.321 251.488 196.445 343.794C145.34 447.528 142.166 461.541 161.124 500.048C184.75 547.991 249.079 545.539 271.326 495.854C283.757 468.171 259.886 412.564 226.758 391.813C211.177 381.867 246.554 355.714 258.544 338.944C267.037 327.092 329.127 406.828 338.216 444.037Z"/>
</mask>
<path d="M119.002 286.146L118.105 285.705L118.104 285.706L119.002 286.146ZM81.2625 363.135L80.3645 362.695L80.3624 362.699L81.2625 363.135ZM48.0825 352.402L47.645 353.302L47.645 353.302L48.0825 352.402ZM35.5114 308.207L36.4098 308.646L36.4098 308.646L35.5114 308.207ZM102.018 97.9464L101.122 98.3903L101.123 98.3907L102.018 97.9464ZM-14.6053 147.781L-13.6576 147.462L-13.6578 147.461L-14.6053 147.781ZM30.5955 204.288L31.0744 203.41L31.0704 203.407L30.5955 204.288ZM22.8663 236.846L22.0173 236.317L22.0171 236.317L22.8663 236.846ZM-25.834 243.038L-26.5145 243.77L-26.5133 243.772L-25.834 243.038ZM-76.7308 86.2762L-77.68 85.9614L-77.6802 85.9619L-76.7308 86.2762ZM338.216 444.037L339.188 443.802L339.188 443.8L338.216 444.037ZM105.151 536.565L104.291 537.075L104.291 537.075L105.151 536.565ZM141.229 307.818L140.333 307.376L140.332 307.376L141.229 307.818ZM207.929 247.842L208.36 246.94L208.359 246.94L207.929 247.842ZM196.445 343.794L195.549 343.349L195.548 343.352L196.445 343.794ZM161.124 500.048L160.226 500.49L160.227 500.49L161.124 500.048ZM271.326 495.854L270.414 495.444L270.413 495.445L271.326 495.854ZM226.758 391.813L226.22 392.656L226.227 392.66L226.758 391.813ZM258.544 338.944L257.731 338.362L257.73 338.363L258.544 338.944ZM163.052 91.2361C171.912 117.522 174.739 137.405 168.373 165.017C161.986 192.726 146.341 228.226 118.105 285.705L119.9 286.587C148.118 229.144 163.874 193.438 170.322 165.467C176.792 137.399 173.89 117.129 164.947 90.5973L163.052 91.2361ZM118.104 285.706L80.3645 362.695L82.1604 363.575L119.9 286.586L118.104 285.706ZM80.3624 362.699C79.9703 363.509 79.5863 363.863 78.9497 363.998C78.1764 364.161 76.8856 364.031 74.5962 363.291C70.0588 361.823 62.3081 358.21 48.5199 351.503L47.645 353.302C61.3766 359.981 69.2774 363.673 73.9808 365.194C76.3118 365.948 78.0387 366.234 79.3627 365.954C80.8233 365.646 81.6161 364.7 82.1625 363.571L80.3624 362.699ZM48.5199 351.503C41.0445 347.867 35.5988 345.397 31.8059 343.187C27.9995 340.968 26.1543 339.169 25.5438 337.019C24.9219 334.83 25.4911 331.987 27.3919 327.425C29.2788 322.897 32.3469 316.955 36.4098 308.646L34.6131 307.767C30.585 316.005 27.4634 322.054 25.5458 326.656C23.642 331.225 22.7919 334.651 23.6199 337.566C24.4592 340.521 26.933 342.662 30.7989 344.915C34.6781 347.175 40.2579 349.708 47.645 353.302L48.5199 351.503ZM36.4098 308.646C77.0026 225.602 98.8463 183.356 107.928 156.695C112.481 143.329 113.869 133.768 112.762 124.881C111.658 116.015 108.08 107.918 102.914 97.5021L101.123 98.3907C106.289 108.808 109.72 116.634 110.777 125.128C111.832 133.6 110.536 142.836 106.034 156.051C97.0072 182.552 75.265 224.603 34.613 307.767L36.4098 308.646ZM102.914 97.5024C85.7458 62.8488 49.8639 57.2333 21.5217 69.3444C-6.81791 81.4545 -27.9387 111.42 -15.5527 148.101L-13.6578 147.461C-25.6311 112.003 -5.31632 82.9877 22.3076 71.1835C49.929 59.3804 84.5386 64.9172 101.122 98.3903L102.914 97.5024ZM-15.5529 148.101C-12.6043 156.854 -4.75656 169.18 4.07004 180.23C12.886 191.267 22.8465 201.243 30.1207 205.168L31.0704 203.407C24.178 199.689 14.4296 189.995 5.63271 178.982C-3.1536 167.982 -10.823 155.877 -13.6576 147.462L-15.5529 148.101ZM30.1167 205.165C32.2644 206.337 33.6363 207.287 34.39 208.376C35.0854 209.38 35.3327 210.629 34.8545 212.644C34.3653 214.706 33.1425 217.45 31.0186 221.307C28.9032 225.148 25.9375 230.018 22.0173 236.317L23.7153 237.374C27.6339 231.077 30.6262 226.165 32.7705 222.272C34.9061 218.393 36.2446 215.449 36.8005 213.106C37.3675 210.716 37.1437 208.84 36.0344 207.237C34.9833 205.719 33.2166 204.578 31.0744 203.41L30.1167 205.165ZM22.0171 236.317C17.0448 244.313 13.3001 250.243 10.032 254.279C6.74899 258.332 4.11124 260.259 1.41323 260.602C-1.28966 260.944 -4.37205 259.738 -8.65687 256.643C-12.9204 253.563 -18.1632 248.774 -25.1548 242.304L-26.5133 243.772C-19.5519 250.214 -14.2113 255.097 -9.82805 258.264C-5.46613 261.415 -1.83845 263.03 1.6649 262.586C5.17315 262.141 8.23782 259.672 11.5862 255.537C14.9497 251.384 18.7654 245.334 23.7155 237.374L22.0171 236.317ZM-25.1535 242.305C-51.2205 218.095 -68.4395 192.97 -76.8642 167.02C-85.2846 141.082 -84.9406 114.257 -75.7815 86.5904L-77.6802 85.9619C-86.9638 114.005 -87.3272 141.267 -78.7665 167.637C-70.21 193.994 -52.7593 219.396 -26.5145 243.77L-25.1535 242.305ZM-75.7817 86.5909C-37.6162 -28.5101 123.699 -25.6028 163.025 91.1822L164.921 90.544C125.039 -27.8907 -38.8539 -31.132 -77.68 85.9614L-75.7817 86.5909ZM337.244 444.273C354.087 513.811 314.63 567.601 261.726 588.608C208.82 609.617 142.623 597.776 106.011 536.055L104.291 537.075C141.485 599.779 208.799 611.777 262.464 590.467C316.131 569.156 356.305 514.47 339.188 443.802L337.244 444.273ZM106.012 536.055C88.9877 507.331 82.1555 482.67 87.4455 449.125C92.7523 415.475 110.261 372.855 142.126 308.261L140.332 307.376C108.477 371.951 90.8302 414.824 85.4699 448.814C80.0929 482.91 87.082 508.038 104.291 537.075L106.012 536.055ZM142.126 308.261C152.325 287.59 159.487 272.547 165.036 261.817C170.605 251.049 174.461 244.81 178.006 241.622C179.744 240.058 181.363 239.272 183.038 239.025C184.731 238.776 186.587 239.06 188.825 239.821C191.069 240.585 193.62 241.801 196.695 243.349C199.751 244.888 203.31 246.747 207.498 248.745L208.359 246.94C204.197 244.954 200.682 243.118 197.594 241.563C194.524 240.017 191.86 238.742 189.469 237.928C187.072 237.112 184.874 236.733 182.746 237.047C180.601 237.363 178.632 238.368 176.668 240.135C172.807 243.608 168.798 250.188 163.26 260.899C157.7 271.649 150.511 286.745 140.333 307.376L142.126 308.261ZM207.497 248.744C211.635 250.724 215.284 252.269 218.375 253.621C221.485 254.981 224.001 256.135 225.956 257.353C227.904 258.565 229.213 259.792 229.985 261.256C230.752 262.71 231.049 264.513 230.752 266.995C230.148 272.041 227.141 279.52 221.325 291.644C215.527 303.728 207.028 320.252 195.549 343.349L197.34 344.239C208.799 321.182 217.324 304.607 223.128 292.509C228.913 280.451 232.088 272.667 232.738 267.233C233.068 264.475 232.762 262.235 231.754 260.324C230.753 258.424 229.118 256.965 227.014 255.655C224.917 254.35 222.273 253.143 219.177 251.788C216.062 250.426 212.459 248.901 208.36 246.94L207.497 248.744ZM195.548 343.352C170.015 395.179 156.379 424.736 151.535 446.161C149.105 456.912 148.876 465.655 150.475 474.161C152.071 482.647 155.476 490.841 160.226 500.49L162.021 499.606C157.292 490.002 153.985 482.004 152.441 473.791C150.901 465.597 151.105 457.133 153.486 446.602C158.266 425.46 171.77 396.143 197.342 344.236L195.548 343.352ZM160.227 500.49C184.254 549.247 249.671 546.664 272.239 496.262L270.413 495.445C248.487 544.414 185.246 546.735 162.021 499.606L160.227 500.49ZM272.238 496.263C278.628 482.034 275.636 460.879 267.046 440.84C258.436 420.757 244.074 401.479 227.289 390.965L226.227 392.66C242.57 402.897 256.707 421.798 265.207 441.628C273.727 461.5 276.455 481.99 270.414 495.444L272.238 496.263ZM227.296 390.97C225.514 389.832 224.538 388.519 224.118 387.091C223.692 385.643 223.8 383.955 224.418 382.018C225.665 378.111 228.883 373.516 233.074 368.585C237.247 363.676 242.276 358.553 247.05 353.573C251.802 348.615 256.311 343.786 259.357 339.526L257.73 338.363C254.782 342.487 250.373 347.216 245.606 352.189C240.861 357.139 235.773 362.322 231.55 367.29C227.345 372.236 223.891 377.092 222.512 381.41C221.818 383.587 221.625 385.704 222.199 387.656C222.779 389.627 224.107 391.307 226.22 392.656L227.296 390.97ZM259.357 339.527C259.699 339.049 260.153 338.801 260.801 338.761C261.499 338.717 262.436 338.918 263.628 339.446C266.011 340.5 269.075 342.703 272.632 345.879C279.723 352.209 288.521 362.173 297.363 373.701C306.2 385.223 315.054 398.272 322.261 410.752C329.479 423.25 335.007 435.112 337.245 444.274L339.188 443.8C336.881 434.358 331.239 422.299 323.993 409.752C316.737 397.187 307.834 384.066 298.95 372.484C290.072 360.909 281.187 350.836 273.964 344.387C270.363 341.172 267.112 338.8 264.438 337.617C263.102 337.026 261.825 336.693 260.676 336.765C259.477 336.84 258.45 337.358 257.731 338.362L259.357 339.527Z" fill="#03FFA2" fill-opacity="0.4" mask="url(#path-1-inside-1_57_4)"/>
</svg>
