<svg width="372" height="588" viewBox="0 0 372 588" fill="none" xmlns="http://www.w3.org/2000/svg">
<mask id="path-1-inside-1_31_51" fill="white">
<path d="M420.33 209.451C385.705 253.159 359.187 262.801 232.049 277.981L146.92 288.219C142.647 288.754 141.614 284.912 137.87 254.517C133.827 221.686 131.538 224.331 168.109 219.896C351.766 197.601 356.993 201.279 380.705 161.24C419.497 95.8039 322.703 30.7254 275.434 90.4603C264.177 104.665 251.326 143.124 252.622 159.18C253.364 168.933 250.765 169.866 221.1 170.42C183.527 171.136 182.922 170.396 189.405 132.903C201.701 62.5266 236.456 19.6593 293.231 4.80797C411.583 -26.0906 497.484 112.105 420.36 209.4M218.865 548.01C119.712 652.87 -49.8177 532.435 14.4133 402.715C44.247 342.52 82.9157 325.283 225.961 308.444C317.441 297.682 307.77 295.065 312.575 331.786C317.279 368.03 328.23 362.647 225.824 374.393C110.983 387.973 97.4993 392.939 75.5078 429.824C48.1404 475.767 85.2024 528.443 138.993 520.066C168.983 515.428 202.647 465.106 202.031 425.992C201.897 407.494 243.09 422.956 263.683 423.891C278.248 424.568 245.137 520.117 218.865 548.01Z"/>
</mask>
<path d="M232.049 277.981L231.93 276.988L231.93 276.988L232.049 277.981ZM146.92 288.219L146.801 287.226L146.796 287.226L146.92 288.219ZM137.87 254.517L136.878 254.639L136.878 254.639L137.87 254.517ZM168.109 219.896L168.23 220.889L168.23 220.889L168.109 219.896ZM380.705 161.24L379.845 160.729L379.845 160.73L380.705 161.24ZM275.434 90.4603L276.217 91.0819L276.218 91.0813L275.434 90.4603ZM252.622 159.18L253.618 159.105L253.618 159.1L252.622 159.18ZM221.1 170.42L221.081 169.42L221.081 169.42L221.1 170.42ZM189.405 132.903L188.42 132.731L188.42 132.733L189.405 132.903ZM293.231 4.80797L292.978 3.8401L292.978 3.84022L293.231 4.80797ZM218.865 548.01L219.591 548.698L219.592 548.696L218.865 548.01ZM14.4133 402.715L13.5177 402.27L13.5175 402.271L14.4133 402.715ZM225.961 308.444L225.844 307.451L225.844 307.451L225.961 308.444ZM312.575 331.786L313.566 331.657L313.566 331.656L312.575 331.786ZM225.824 374.393L225.709 373.4L225.706 373.4L225.824 374.393ZM75.5078 429.824L74.6492 429.311L74.649 429.312L75.5078 429.824ZM138.993 520.066L138.84 519.077L138.839 519.077L138.993 520.066ZM202.031 425.992L201.031 425.999L201.031 426.008L202.031 425.992ZM263.683 423.891L263.729 422.892L263.728 422.891L263.683 423.891ZM419.546 208.83C402.314 230.582 387.17 243.782 360.54 253.474C333.817 263.2 295.519 269.396 231.93 276.988L232.168 278.975C295.717 271.387 334.247 265.172 361.224 255.354C388.293 245.503 403.72 232.028 421.114 210.073L419.546 208.83ZM231.93 276.988L146.801 287.226L147.04 289.212L232.169 278.974L231.93 276.988ZM146.796 287.226C145.903 287.338 145.397 287.208 144.938 286.747C144.38 286.187 143.786 285.033 143.162 282.707C141.924 278.098 140.738 269.623 138.862 254.395L136.878 254.639C138.746 269.805 139.948 278.449 141.231 283.226C141.867 285.593 142.566 287.199 143.521 288.159C144.575 289.217 145.801 289.367 147.045 289.211L146.796 287.226ZM138.862 254.395C137.845 246.138 136.954 240.221 136.745 235.833C136.535 231.429 137.04 228.9 138.512 227.216C140.011 225.502 142.706 224.431 147.567 223.543C152.393 222.662 159.048 222.002 168.23 220.889L167.989 218.903C158.885 220.007 152.112 220.68 147.208 221.575C142.339 222.465 139.002 223.617 137.007 225.899C134.984 228.213 134.534 231.455 134.748 235.928C134.962 240.416 135.873 246.48 136.878 254.639L138.862 254.395ZM168.23 220.889C259.991 209.75 307.322 205.085 334.631 198.192C348.323 194.736 357.1 190.695 363.954 184.927C370.791 179.172 375.638 171.759 381.565 161.75L379.845 160.73C373.917 170.74 369.218 177.882 362.667 183.396C356.132 188.895 347.678 192.836 334.142 196.252C306.995 203.104 259.884 207.747 167.989 218.903L168.23 220.889ZM381.565 161.75C401.297 128.466 386.484 95.2819 360.9 78.0808C335.319 60.8812 298.685 59.4662 274.65 89.8392L276.218 91.0813C299.452 61.7195 334.85 62.9763 359.785 79.7412C384.718 96.5046 398.905 128.578 379.845 160.729L381.565 161.75ZM274.65 89.8386C268.911 97.0808 262.84 110.382 258.372 123.81C253.909 137.222 250.96 151.016 251.625 159.261L253.618 159.1C252.988 151.288 255.816 137.825 260.269 124.442C264.717 111.075 270.7 98.0443 276.217 91.0819L274.65 89.8386ZM251.625 159.256C251.811 161.697 251.76 163.367 251.257 164.592C250.792 165.724 249.879 166.611 247.928 167.307C245.931 168.019 242.964 168.487 238.573 168.804C234.199 169.119 228.499 169.281 221.081 169.42L221.119 171.42C228.534 171.282 234.283 171.119 238.717 170.799C243.133 170.48 246.331 170.001 248.6 169.192C250.914 168.366 252.365 167.157 253.106 165.353C253.808 163.644 253.804 161.54 253.618 159.105L251.625 159.256ZM221.081 169.42C211.666 169.599 204.654 169.684 199.49 169.138C194.302 168.589 191.25 167.424 189.495 165.345C187.737 163.262 187.071 160.017 187.337 154.734C187.601 149.477 188.766 142.468 190.39 133.074L188.42 132.733C186.802 142.086 185.611 149.229 185.34 154.633C185.07 160.011 185.689 163.936 187.968 166.636C190.25 169.339 193.989 170.567 199.28 171.127C204.595 171.69 211.747 171.599 221.119 171.42L221.081 169.42ZM190.389 133.076C196.517 98.007 208.227 69.8684 225.415 48.6639C242.594 27.4701 265.288 13.1513 293.484 5.77573L292.978 3.84022C264.399 11.316 241.328 25.8565 223.862 47.4034C206.405 68.9396 194.589 97.4229 188.42 132.731L190.389 133.076ZM293.483 5.77585C410.819 -24.8573 496.161 112.165 419.577 208.778L421.144 210.021C498.807 112.046 412.346 -27.3238 292.978 3.8401L293.483 5.77585ZM218.138 547.323C168.961 599.33 102.361 595.493 55.9487 562.515C9.5342 529.535 -16.5531 467.508 15.3092 403.159L13.5175 402.271C-18.8512 467.642 7.7107 530.693 54.7914 564.146C101.874 597.6 169.615 601.55 219.591 548.698L218.138 547.323ZM15.309 403.16C30.1452 373.225 47.1178 354.059 78.1398 340.235C109.26 326.366 154.545 317.858 226.079 309.438L225.844 307.451C154.332 315.869 108.76 324.399 77.3259 338.407C45.7937 352.459 28.5151 372.01 13.5177 402.27L15.309 403.16ZM226.078 309.438C248.971 306.745 265.489 304.567 277.51 303.383C289.576 302.195 296.908 302.035 301.512 303.275C303.77 303.883 305.31 304.814 306.428 306.086C307.559 307.372 308.331 309.084 308.909 311.378C309.49 313.678 309.857 316.483 310.232 319.907C310.604 323.311 310.981 327.311 311.583 331.915L313.566 331.656C312.967 327.08 312.595 323.129 312.219 319.69C311.846 316.271 311.466 313.339 310.848 310.889C310.228 308.432 309.35 306.38 307.929 304.765C306.496 303.136 304.581 302.03 302.031 301.343C297.016 299.992 289.314 300.21 277.314 301.392C265.269 302.578 248.692 304.763 225.844 307.451L226.078 309.438ZM311.583 331.914C312.174 336.467 312.864 340.371 313.411 343.703C313.962 347.055 314.363 349.795 314.406 352.1C314.448 354.396 314.131 356.163 313.323 357.609C312.52 359.044 311.169 360.276 308.925 361.378C304.363 363.619 296.452 365.167 283.115 366.885C269.822 368.598 251.333 370.46 225.709 373.4L225.938 375.387C251.517 372.453 270.063 370.584 283.371 368.869C296.635 367.16 304.894 365.587 309.806 363.174C312.3 361.95 314.013 360.473 315.068 358.586C316.116 356.711 316.451 354.544 316.405 352.064C316.359 349.593 315.933 346.716 315.384 343.379C314.833 340.022 314.151 336.166 313.566 331.657L311.583 331.914ZM225.706 373.4C168.33 380.185 136.112 384.831 115.501 392.431C105.158 396.245 97.6987 400.814 91.433 406.788C85.1815 412.748 80.1597 420.069 74.6492 429.311L76.3664 430.337C81.8517 421.137 86.7621 414.005 92.8126 408.236C98.8489 402.481 106.061 398.044 116.193 394.308C136.532 386.808 168.476 382.182 225.941 375.387L225.706 373.4ZM74.649 429.312C46.8174 476.034 84.5805 529.552 139.147 521.054L138.839 519.077C85.8242 527.334 49.4635 475.5 76.3666 430.336L74.649 429.312ZM139.146 521.054C154.561 518.671 170.682 504.639 182.82 486.514C194.984 468.351 203.343 445.794 203.03 425.977L201.031 426.008C201.335 445.304 193.17 467.465 181.159 485.401C169.121 503.375 153.415 516.823 138.84 519.077L139.146 521.054ZM203.03 425.985C203.015 423.869 203.586 422.335 204.556 421.204C205.538 420.058 207.014 419.229 208.975 418.694C212.932 417.613 218.538 417.812 224.956 418.646C231.345 419.476 238.38 420.91 245.156 422.206C251.901 423.496 258.406 424.652 263.638 424.89L263.728 422.891C258.663 422.662 252.297 421.535 245.531 420.241C238.795 418.953 231.679 417.502 225.213 416.662C218.775 415.826 212.821 415.57 208.448 416.764C206.244 417.365 204.363 418.356 203.038 419.901C201.7 421.462 201.013 423.491 201.031 425.999L203.03 425.985ZM263.637 424.89C264.224 424.917 264.679 425.164 265.066 425.685C265.482 426.247 265.823 427.143 266.03 428.432C266.442 431.007 266.26 434.779 265.531 439.494C264.079 448.895 260.507 461.708 255.646 475.41C250.788 489.103 244.658 503.642 238.109 516.49C231.551 529.355 224.606 540.456 218.137 547.324L219.592 548.696C226.259 541.618 233.306 530.315 239.89 517.399C246.483 504.465 252.647 489.845 257.53 476.079C262.41 462.323 266.027 449.377 267.507 439.801C268.245 435.028 268.466 431.006 268.004 428.116C267.773 426.673 267.358 425.42 266.672 424.494C265.956 423.528 264.963 422.949 263.729 422.892L263.637 424.89Z" fill="#03FFA2" fill-opacity="0.4" mask="url(#path-1-inside-1_31_51)"/>
</svg>
