<svg width="150" height="28" viewBox="0 0 150 28" fill="none" xmlns="http://www.w3.org/2000/svg">
<path d="M51.234 26.3292C45.467 25.5326 43.1928 23.6582 35.0797 13.024L29.6407 5.9075C29.3658 5.55136 29.6564 5.25458 32.1899 3.30519C34.9266 1.19959 34.5673 1.13399 36.9072 4.18928C48.6598 19.5314 48.6067 20.1968 53.4645 20.2062C61.4058 20.2249 62.1181 8.06308 54.2393 6.97904C52.3649 6.71974 48.2256 7.60384 46.851 8.57229C46.0137 9.15648 45.7919 8.97217 44.1674 6.33237C42.1087 2.98966 42.1431 2.89594 45.8575 1.49013C52.8366 -1.13718 58.5348 -0.284317 62.8835 4.03621C71.9431 13.0459 64.08 28.1068 51.2402 26.3292M10.1062 26.1637C-4.58294 22.8053 -2.75539 1.16211 12.3149 0.0593254C19.3096 -0.449891 22.9116 2.11493 32.0181 14.0924C37.8413 21.7525 37.5633 20.7435 34.5173 23.124C31.5089 25.4701 32.5742 26.1699 26.0825 17.5789C18.766 7.96623 17.6039 7.01653 13.1209 6.99466C7.53827 6.96967 4.77039 13.099 8.37863 17.4945C10.3874 19.9469 16.6979 20.3061 20.1812 18.1755C21.8369 17.1821 22.6336 21.7088 23.6426 23.6113C24.3549 24.9578 14.0081 27.0478 10.1062 26.1637Z" fill="#03FFA2"/>
<path d="M90.4218 19.7406C90.4245 19.8187 90.4014 19.8955 90.3562 19.9593C90.3007 20.0274 90.2286 20.0801 90.1469 20.1123C90.0168 20.1639 89.8801 20.1965 89.7407 20.2092C89.5261 20.234 89.3101 20.2455 89.0941 20.2436C88.8728 20.2457 88.6516 20.2342 88.4318 20.2092C88.2935 20.1962 88.1578 20.1636 88.0288 20.1123C87.9458 20.0808 87.8725 20.028 87.8163 19.9593C87.7711 19.8955 87.748 19.8187 87.7507 19.7406V11.2151C87.7678 10.5402 87.7028 9.86563 87.557 9.20637C87.4458 8.74061 87.2544 8.29771 86.9916 7.89741C86.7508 7.5371 86.4188 7.24711 86.0294 7.05705C85.6026 6.8534 85.1339 6.75282 84.6611 6.76339C83.934 6.78258 83.2318 7.03198 82.6554 7.47567C81.8632 8.07269 81.1559 8.77474 80.553 9.56251V19.7406C80.5557 19.8187 80.5327 19.8955 80.4874 19.9593C80.4319 20.0274 80.3598 20.0801 80.2781 20.1123C80.1479 20.1636 80.0112 20.1962 79.8719 20.2092C79.6521 20.2342 79.4309 20.2457 79.2097 20.2436C78.9936 20.2455 78.7776 20.234 78.563 20.2092C78.4217 20.1961 78.2829 20.1635 78.1506 20.1123C78.0662 20.0835 77.9922 20.0302 77.9382 19.9593C77.8988 19.8933 77.8793 19.8174 77.8819 19.7406V5.17951C77.8789 5.10347 77.8961 5.02798 77.9319 4.96083C77.979 4.88867 78.0464 4.83212 78.1256 4.79838C78.2431 4.74507 78.3688 4.71231 78.4974 4.70153C78.6968 4.68318 78.897 4.67484 79.0972 4.67654C79.3346 4.67654 79.5314 4.67654 79.6876 4.70153C79.8136 4.71005 79.9366 4.74294 80.05 4.79838C80.1247 4.83657 80.189 4.89231 80.2375 4.96083C80.2768 5.0268 80.2963 5.10273 80.2937 5.17951V7.10391C80.9851 6.29208 81.8155 5.60978 82.746 5.08891C83.5043 4.68246 84.3506 4.46795 85.2109 4.46411C86.0556 4.43644 86.8951 4.60541 87.6633 4.9577C88.2971 5.26241 88.8488 5.71446 89.2721 6.27604C89.6955 6.85369 89.9963 7.51174 90.1562 8.20981C90.3481 9.08367 90.4372 9.97694 90.4218 10.8715V19.7406Z" fill="white"/>
<path d="M107.254 11.8276C107.271 11.9913 107.252 12.1567 107.198 12.3122C107.144 12.4676 107.056 12.6094 106.942 12.7273C106.74 12.901 106.483 12.9954 106.217 12.9929H96.6261C96.6173 13.7291 96.6992 14.4635 96.8698 15.1797C97.0127 15.79 97.2914 16.3602 97.6851 16.8479C98.0803 17.3224 98.5884 17.6898 99.1628 17.9163C99.8746 18.1817 100.631 18.3079 101.39 18.2881C102.012 18.2949 102.633 18.2384 103.243 18.1194C103.721 18.0219 104.193 17.8935 104.655 17.7352C105.048 17.5946 105.373 17.4665 105.63 17.354C105.813 17.2598 106.012 17.2015 106.217 17.1822C106.289 17.1811 106.359 17.2007 106.42 17.2384C106.482 17.2789 106.53 17.3379 106.557 17.4071C106.595 17.5076 106.619 17.6127 106.629 17.7195C106.648 17.8833 106.657 18.0482 106.654 18.2131C106.654 18.3537 106.654 18.4755 106.639 18.5786C106.63 18.6709 106.616 18.7627 106.598 18.8536C106.583 18.9305 106.556 19.0044 106.517 19.0722C106.476 19.1386 106.427 19.2004 106.373 19.2566C106.21 19.375 106.032 19.4726 105.845 19.5471C105.48 19.7104 105.101 19.8431 104.714 19.9438C104.181 20.0933 103.639 20.2143 103.093 20.3062C102.448 20.4101 101.796 20.4613 101.143 20.4593C100.073 20.4796 99.008 20.3093 97.9975 19.9563C97.1336 19.6454 96.3546 19.136 95.7232 18.4693C95.0789 17.7589 94.6036 16.912 94.333 15.9919C94.0021 14.8686 93.8441 13.7014 93.8644 12.5305C93.8476 11.3856 94.01 10.2451 94.3455 9.15034C94.6346 8.21741 95.1108 7.3532 95.7451 6.61051C96.35 5.91449 97.1038 5.36355 97.9507 4.99851C98.8677 4.61657 99.8534 4.42729 100.847 4.44243C101.849 4.41563 102.845 4.6053 103.768 4.99851C104.532 5.33444 105.21 5.84098 105.748 6.4793C106.278 7.12009 106.668 7.86512 106.892 8.66611C107.138 9.53707 107.26 10.4384 107.254 11.3434V11.8276ZM104.567 11.0372C104.601 9.6356 104.288 8.53491 103.63 7.73516C102.971 6.93853 101.999 6.53865 100.706 6.53865C100.105 6.52565 99.5092 6.65294 98.966 6.91041C98.4839 7.14676 98.0579 7.48333 97.7164 7.8976C97.3721 8.3237 97.1075 8.80839 96.9354 9.32841C96.749 9.87988 96.6438 10.4555 96.623 11.0372H104.567Z" fill="white"/>
<path d="M121.384 19.4345C121.459 19.5474 121.504 19.6774 121.515 19.8125C121.514 19.8648 121.499 19.9158 121.471 19.9603C121.444 20.0047 121.405 20.0411 121.359 20.0655C121.214 20.1426 121.054 20.1894 120.89 20.203C120.62 20.2323 120.347 20.2459 120.075 20.2436C119.763 20.2436 119.494 20.2436 119.306 20.2186C119.153 20.2093 119.001 20.182 118.854 20.1374C118.756 20.1101 118.668 20.0597 118.594 19.9906C118.534 19.9317 118.482 19.8643 118.441 19.7906L114.945 14.0143L111.465 19.7906C111.424 19.8643 111.373 19.9317 111.312 19.9906C111.239 20.0597 111.15 20.1101 111.053 20.1374C110.909 20.1815 110.76 20.2088 110.609 20.2186C110.425 20.2186 110.181 20.2436 109.881 20.2436C109.625 20.2457 109.368 20.2321 109.113 20.203C108.959 20.1898 108.809 20.1428 108.675 20.0655C108.633 20.0387 108.599 20.0011 108.577 19.9566C108.554 19.9121 108.544 19.8623 108.547 19.8125C108.565 19.6755 108.618 19.5454 108.7 19.4345L113.23 12.3305L108.941 5.48573C108.868 5.37023 108.821 5.24014 108.804 5.1046C108.803 5.05267 108.816 5.00152 108.842 4.95647C108.868 4.91142 108.905 4.87411 108.95 4.84843C109.093 4.76528 109.254 4.71811 109.419 4.71097C109.696 4.68557 109.975 4.6741 110.253 4.67661C110.565 4.67661 110.815 4.67661 111.006 4.7016C111.156 4.71124 111.304 4.7353 111.45 4.77345C111.54 4.79738 111.623 4.84233 111.693 4.90466C111.75 4.96201 111.799 5.02724 111.837 5.09835L115.155 10.5185L118.519 5.09835C118.562 5.03431 118.611 4.97466 118.666 4.92028C118.729 4.86081 118.804 4.81413 118.885 4.78282C119.009 4.73758 119.14 4.71023 119.272 4.7016C119.441 4.68598 119.669 4.67661 119.959 4.67661C120.216 4.67439 120.473 4.68586 120.728 4.71097C120.883 4.72064 121.035 4.76099 121.175 4.82968C121.219 4.85357 121.256 4.89069 121.279 4.93597C121.302 4.98125 121.31 5.0325 121.303 5.08273C121.279 5.22743 121.224 5.36508 121.14 5.48573L116.885 12.2492L121.384 19.4345Z" fill="white"/>
<path d="M136.389 19.7408C136.391 19.8176 136.372 19.8935 136.332 19.9595C136.281 20.029 136.21 20.0821 136.129 20.1126C136.007 20.1622 135.879 20.1948 135.748 20.2094C135.558 20.234 135.366 20.2455 135.173 20.2438C134.971 20.246 134.768 20.2345 134.567 20.2094C134.439 20.1958 134.314 20.1631 134.196 20.1126C134.12 20.0823 134.055 20.0287 134.011 19.9595C133.975 19.8923 133.958 19.8168 133.961 19.7408V17.807C133.265 18.6141 132.433 19.2929 131.503 19.8127C130.746 20.2179 129.902 20.4323 129.044 20.4375C128.201 20.4633 127.362 20.2977 126.592 19.9532C125.956 19.6505 125.403 19.1968 124.983 18.6318C124.559 18.0519 124.259 17.3918 124.099 16.6918C123.906 15.8074 123.817 14.9037 123.833 13.9988V5.17973C123.831 5.10294 123.85 5.02702 123.889 4.96104C123.946 4.88733 124.021 4.83101 124.108 4.79859C124.243 4.74394 124.385 4.71125 124.53 4.70175C124.702 4.68613 124.917 4.67676 125.177 4.67676C125.436 4.67676 125.651 4.67676 125.823 4.70175C125.965 4.71109 126.104 4.74382 126.236 4.79859C126.32 4.83455 126.395 4.89024 126.454 4.96104C126.5 5.02476 126.523 5.10161 126.52 5.17973V13.6583C126.503 14.3452 126.565 15.0318 126.704 15.7046C126.809 16.1725 127.001 16.6165 127.27 17.0135C127.517 17.3697 127.849 17.6594 128.235 17.857C128.656 18.0692 129.122 18.1764 129.594 18.1694C130.318 18.1515 131.017 17.9031 131.59 17.4603C132.387 16.8557 133.099 16.1476 133.708 15.3547V5.17973C133.706 5.10294 133.725 5.02702 133.764 4.96104C133.821 4.88804 133.897 4.83188 133.983 4.79859C134.115 4.7453 134.254 4.71263 134.396 4.70175C134.564 4.68613 134.783 4.67676 135.052 4.67676C135.32 4.67676 135.526 4.67676 135.698 4.70175C135.838 4.71024 135.976 4.74301 136.104 4.79859C136.187 4.8379 136.261 4.89309 136.323 4.96104C136.372 5.02339 136.397 5.1007 136.395 5.17973L136.389 19.7408Z" fill="white"/>
<path d="M150 15.7762C150.012 16.462 149.871 17.1419 149.588 17.7662C149.319 18.3425 148.918 18.8468 148.416 19.2376C147.876 19.6536 147.261 19.9621 146.604 20.1467C145.851 20.3593 145.072 20.4644 144.289 20.4591C143.793 20.461 143.298 20.4202 142.808 20.3373C142.385 20.2631 141.967 20.1587 141.559 20.0249C141.237 19.9198 140.923 19.7892 140.622 19.6344C140.419 19.5365 140.23 19.4148 140.056 19.272C139.929 19.1486 139.839 18.9915 139.797 18.819C139.736 18.5591 139.709 18.2924 139.716 18.0255C139.714 17.852 139.725 17.6787 139.75 17.5069C139.764 17.392 139.79 17.2788 139.828 17.1695C139.853 17.0939 139.901 17.0281 139.966 16.9821C140.027 16.9443 140.097 16.9248 140.169 16.9259C140.359 16.953 140.54 17.0283 140.694 17.1446C140.928 17.2883 141.212 17.457 141.553 17.6225C141.941 17.8141 142.344 17.973 142.759 18.0974C143.278 18.2517 143.819 18.3254 144.361 18.3161C144.775 18.3213 145.188 18.273 145.589 18.1724C145.921 18.0839 146.235 17.938 146.517 17.7412C146.783 17.5595 146.999 17.312 147.142 17.0227C147.295 16.699 147.37 16.3437 147.36 15.9855C147.373 15.6159 147.263 15.2524 147.048 14.9515C146.816 14.6525 146.53 14.4002 146.204 14.208C145.836 13.9787 145.445 13.7862 145.039 13.6331L143.705 13.1208C143.247 12.9361 142.798 12.7276 142.362 12.496C141.937 12.2652 141.548 11.9748 141.206 11.6338C140.853 11.2924 140.57 10.8861 140.372 10.4373C140.151 9.91073 140.044 9.34309 140.059 8.77217C140.059 8.20778 140.171 7.649 140.391 7.12893C140.615 6.60132 140.955 6.13135 141.387 5.75436C141.874 5.33758 142.438 5.0193 143.046 4.81715C143.793 4.56616 144.579 4.44569 145.367 4.46102C145.758 4.46066 146.147 4.49305 146.532 4.55786C146.887 4.61491 147.238 4.69526 147.582 4.79841C147.858 4.88093 148.126 4.98539 148.385 5.11081C148.559 5.20176 148.727 5.30621 148.885 5.42321C148.975 5.4841 149.052 5.56149 149.113 5.65127C149.152 5.71913 149.179 5.79304 149.194 5.86995C149.209 5.95117 149.224 6.05531 149.241 6.18235C149.26 6.32626 149.268 6.47142 149.266 6.61659C149.268 6.7763 149.26 6.93598 149.241 7.09457C149.23 7.20833 149.203 7.31991 149.16 7.42571C149.133 7.50017 149.085 7.56527 149.022 7.61316C148.97 7.64962 148.908 7.66924 148.844 7.66939C148.691 7.64756 148.547 7.58617 148.425 7.49132C148.196 7.34946 147.958 7.22217 147.713 7.11019C147.38 6.96067 147.036 6.83436 146.685 6.73218C146.247 6.60745 145.792 6.54746 145.336 6.55411C144.931 6.54729 144.527 6.59884 144.136 6.70719C143.825 6.79185 143.536 6.94086 143.286 7.14455C143.071 7.32729 142.9 7.55706 142.787 7.81622C142.671 8.08128 142.613 8.36754 142.615 8.65658C142.598 9.0345 142.708 9.40711 142.927 9.71562C143.159 10.0162 143.443 10.2715 143.768 10.4685C144.146 10.6876 144.543 10.8716 144.955 11.0183L146.304 11.5588C146.765 11.7442 147.218 11.9524 147.663 12.1836C148.096 12.4021 148.497 12.6797 148.853 13.0083C149.232 13.3636 149.531 13.7958 149.728 14.2759C149.926 14.756 150.019 15.2729 150 15.7919V15.7762Z" fill="white"/>
<path d="M80.9123 27.2227C80.9654 27.2227 80.9904 27.2477 80.9904 27.2977V27.7288C80.9914 27.7392 80.9901 27.7497 80.9865 27.7595C80.9829 27.7693 80.9771 27.7781 80.9696 27.7854C80.962 27.7926 80.953 27.798 80.943 27.8012C80.9331 27.8044 80.9226 27.8053 80.9123 27.8038H78.638C78.588 27.8038 78.563 27.7788 78.563 27.7257V24.0893C78.563 24.0362 78.588 24.0112 78.638 24.0112H80.8248C80.8354 24.0097 80.8462 24.0106 80.8564 24.014C80.8666 24.0173 80.8759 24.023 80.8835 24.0306C80.8911 24.0382 80.8968 24.0475 80.9002 24.0577C80.9035 24.0679 80.9045 24.0787 80.9029 24.0893V24.5205C80.9029 24.5704 80.8779 24.5954 80.8248 24.5954H79.194V25.5858H80.6873C80.7404 25.5858 80.7654 25.6139 80.7654 25.667V26.0918C80.7654 26.145 80.7404 26.1731 80.6873 26.1731H79.194V27.2227H80.9123Z" fill="white"/>
<path d="M90.0313 27.8038C89.9813 27.8038 89.9563 27.7788 89.9563 27.7257V24.0893C89.9563 24.0362 89.9813 24.0112 90.0313 24.0112H90.5655C90.5849 24.0107 90.6041 24.0153 90.6211 24.0247C90.6381 24.034 90.6523 24.0477 90.6623 24.0644L91.6995 25.87C91.9525 26.323 92.1306 26.6417 92.2275 26.8291H92.2462C92.2118 26.3761 92.1962 25.8919 92.1962 25.3889V24.0893C92.1962 24.0362 92.2243 24.0112 92.2774 24.0112H92.7554C92.766 24.0097 92.7769 24.0106 92.7871 24.014C92.7973 24.0173 92.8065 24.023 92.8141 24.0306C92.8217 24.0382 92.8274 24.0475 92.8308 24.0577C92.8342 24.0679 92.8351 24.0787 92.8335 24.0893V27.7288C92.8351 27.7395 92.8342 27.7503 92.8308 27.7605C92.8274 27.7707 92.8217 27.78 92.8141 27.7876C92.8065 27.7951 92.7973 27.8009 92.7871 27.8042C92.7769 27.8076 92.766 27.8085 92.7554 27.8069H92.2181C92.1997 27.8067 92.1817 27.8017 92.1658 27.7924C92.1499 27.7831 92.1367 27.7698 92.1275 27.7538L91.1247 26.0918C90.9144 25.7547 90.7245 25.4052 90.5561 25.0453H90.5405C90.5717 25.5951 90.5873 26.0794 90.5873 26.5042V27.7226C90.5873 27.7757 90.5624 27.8007 90.5124 27.8007L90.0313 27.8038Z" fill="white"/>
<path d="M104.342 27.2227C104.396 27.2227 104.42 27.2477 104.42 27.2977V27.7288C104.422 27.7392 104.42 27.7497 104.417 27.7595C104.413 27.7693 104.407 27.7781 104.4 27.7853C104.392 27.7926 104.383 27.798 104.373 27.8012C104.363 27.8044 104.353 27.8053 104.342 27.8038H102.068C102.018 27.8038 101.993 27.7788 101.993 27.7257V24.0893C101.993 24.0362 102.018 24.0112 102.068 24.0112H104.255C104.308 24.0112 104.336 24.0362 104.336 24.0893V24.5204C104.336 24.5704 104.308 24.5954 104.255 24.5954H102.624V25.5857H104.117C104.171 25.5857 104.196 25.6139 104.196 25.667V26.0918C104.196 26.1449 104.171 26.1731 104.117 26.1731H102.624V27.2227H104.342Z" fill="white"/>
<path d="M115.508 27.8037C115.489 27.8041 115.471 27.7993 115.455 27.79C115.439 27.7806 115.426 27.7669 115.417 27.7506L114.48 26.4166H114.027V27.7256C114.027 27.7787 114.002 27.8037 113.952 27.8037H113.465C113.415 27.8037 113.39 27.7787 113.39 27.7256V24.0892C113.39 24.0361 113.415 24.0111 113.465 24.0111H114.695C115.062 23.9868 115.424 24.098 115.714 24.3235C115.922 24.5353 116.048 24.8132 116.072 25.1089C116.096 25.4045 116.016 25.6992 115.845 25.9417C115.679 26.1444 115.451 26.2862 115.195 26.3447L116.167 27.7068C116.177 27.7203 116.182 27.7368 116.182 27.7537C116.182 27.7849 116.161 27.8005 116.12 27.8005L115.508 27.8037ZM114.027 24.5984V25.848H114.695C114.891 25.8641 115.086 25.8098 115.245 25.6949C115.308 25.6352 115.357 25.5621 115.388 25.481C115.419 25.3998 115.431 25.3128 115.423 25.2263C115.431 25.1389 115.419 25.0509 115.388 24.9687C115.357 24.8865 115.309 24.8123 115.245 24.7515C115.086 24.6367 114.891 24.5824 114.695 24.5984H114.027Z" fill="white"/>
<path d="M127.17 27.7227C126.928 27.825 126.667 27.876 126.404 27.8726C126.149 27.8745 125.897 27.8223 125.664 27.7195C125.444 27.6227 125.256 27.4643 125.123 27.2634C124.983 27.038 124.914 26.7758 124.923 26.5105V25.3047C124.914 25.0402 124.981 24.7786 125.117 24.5518C125.242 24.3523 125.424 24.1946 125.639 24.0988C125.868 23.9971 126.116 23.9459 126.367 23.9488C126.594 23.9494 126.82 23.981 127.038 24.0426C127.251 24.0999 127.454 24.1884 127.641 24.305C127.654 24.3122 127.664 24.3222 127.671 24.3342C127.679 24.3461 127.684 24.3596 127.685 24.3737C127.683 24.3893 127.678 24.4042 127.669 24.4175L127.404 24.783C127.398 24.794 127.39 24.8033 127.379 24.8099C127.369 24.8165 127.357 24.8201 127.345 24.8204C127.329 24.8244 127.313 24.8244 127.298 24.8204C127.014 24.6537 126.69 24.5673 126.361 24.5705C126.15 24.5608 125.944 24.6299 125.783 24.7642C125.707 24.8379 125.648 24.9272 125.61 25.026C125.572 25.1247 125.557 25.2305 125.564 25.3359V26.5262C125.557 26.6328 125.575 26.7395 125.616 26.8381C125.658 26.9367 125.721 27.0245 125.801 27.0947C125.974 27.2262 126.187 27.2935 126.404 27.2853C126.547 27.2863 126.689 27.2652 126.826 27.2228C126.939 27.1889 127.045 27.1338 127.138 27.0604V26.2419H126.426C126.376 26.2419 126.351 26.2138 126.351 26.1607V25.742C126.351 25.6889 126.376 25.6608 126.426 25.6608H127.676C127.726 25.6608 127.751 25.6889 127.751 25.742V27.2353C127.752 27.2506 127.751 27.266 127.746 27.2806C127.741 27.2951 127.733 27.3085 127.723 27.3197C127.567 27.4898 127.379 27.6268 127.17 27.7227Z" fill="white"/>
<path d="M137.423 27.7288C137.423 27.7819 137.401 27.8069 137.351 27.8069H136.86C136.81 27.8069 136.785 27.7819 136.785 27.7288V24.0893C136.785 24.0362 136.81 24.0112 136.86 24.0112H137.351C137.401 24.0112 137.423 24.0362 137.423 24.0893V27.7288Z" fill="white"/>
<path d="M146.242 27.8037C146.179 27.8037 146.157 27.7756 146.176 27.7131L147.454 24.0736C147.459 24.0555 147.471 24.0396 147.486 24.0283C147.501 24.017 147.519 24.011 147.538 24.0111H148.144C148.164 24.0092 148.183 24.0145 148.199 24.0261C148.214 24.0376 148.225 24.0546 148.229 24.0736L149.503 27.7162C149.505 27.7265 149.505 27.7372 149.503 27.7475C149.503 27.7881 149.481 27.8068 149.435 27.8068H148.913C148.893 27.809 148.873 27.8039 148.856 27.7924C148.839 27.7809 148.827 27.7639 148.822 27.7443L148.563 26.9415H147.11L146.851 27.7443C146.845 27.7635 146.833 27.7802 146.817 27.7916C146.8 27.803 146.78 27.8083 146.76 27.8068L146.242 27.8037ZM147.829 24.7078L147.292 26.3604H148.391L147.857 24.7078H147.829Z" fill="white"/>
</svg>
